<?xml version="1.0" encoding="utf-8"?>
<!-- Generator: Adobe Illustrator 23.0.2, SVG Export Plug-In . SVG Version: 6.00 Build 0)  -->
<svg version="1.1" xmlns="http://www.w3.org/2000/svg" xmlns:xlink="http://www.w3.org/1999/xlink" x="0px" y="0px"
	 viewBox="0 0 528.35 406.63" style="enable-background:new 0 0 528.35 406.63;" xml:space="preserve">
<style type="text/css">
	.st0{fill:#A7A9AC;}
	.st1{fill:#B3B5B7;}
	.st2{fill:none;}
	.st3{fill:#00AEEF;}
	.st4{fill:#231F20;}
	.st5{fill:#ED1C24;}
	.st6{fill:#010101;}
	.st7{fill:#FFFFFF;}
	.st8{font-family:'Helvetica';}
	.st9{font-size:6.8786px;}
	.st10{font-size:8px;}
	.st11{enable-background:new    ;}
	.st12{fill:none;stroke:#ED1C24;stroke-miterlimit:10;stroke-dasharray:5,2;}
	.st13{fill:none;stroke:#010101;stroke-width:0.25;stroke-miterlimit:10;}
	.st14{font-family:'ProximaSoft-Regular';}
	.st15{fill:#A4A7A9;}
</style>
<g id="Layer_1">
</g>
<g id="Map_Legend">
</g>
<g id="Text">
	<g>
		<polygon class="st0" points="477.09,264.26 448.3,284.06 448.22,284.06 410.77,348.98 418.69,353.51 455.07,290.58 477.09,275.4 
					"/>
		<polygon class="st0" points="240.85,198.94 211.32,189.37 211.32,189.37 191.61,188.13 191.28,192.75 210.41,193.9 241.51,203.97 
					"/>
		<polygon class="st0" points="268.48,179.39 255.12,153.57 251.49,155.3 265.68,183.02 		"/>
		<path class="st0" d="M304.86,65.39l46.19,33.74l5.44-7.42l-47.84-34.97c-1.24-0.91-2.72-1.57-4.21-1.81l-31.01-6.19
			c-1.65-0.33-3.3-0.25-4.95,0.16l-79.6,22.6c-2.8,0.82-5.2,2.47-6.93,4.78l-27.3,37.37c-0.99,1.32-2.23,2.39-3.71,3.05
			l-85.62,40.67c-1.4,0.66-2.31,2.23-2.06,3.79l14.76,128.59c0.25,2.06,1.48,3.79,3.3,4.7l69.62,34.48l21.03,1.15l-81.99-41.82
			c-1.81-0.91-2.97-2.64-3.22-4.7L73.16,166.6c-0.16-1.57,0.66-3.05,2.06-3.79l81.74-38.77c1.48-0.74,2.8-1.73,3.71-3.05
			l24.25-33.16c5.2-7.92,3.38-6.93,13.86-9.49l71.51-19.71c1.57-0.41,3.22-0.49,4.87-0.16l25.49,5.11
			C302.14,63.82,303.62,64.48,304.86,65.39z"/>
		<polygon class="st0" points="477.09,150.31 436.67,163.59 436.18,163.76 435.68,164.58 315.5,340.27 324.57,346.46 443.11,172.99 
			476.43,162.11 		"/>
		<polygon class="st1" points="186.94,124 195.44,144.13 207.57,127.22 207.57,124 220.35,119.21 221.75,116.58 219.03,112.37 
			223.24,107.34 229.59,105.77 223.07,96.45 194.95,108.41 		"/>
		<polygon class="st1" points="155.81,191.84 162.74,188.38 164.55,192.34 168.35,195.8 170.74,191.1 185.42,184.34 181.96,177.9 
			169.58,172.13 166.61,166.11 147.15,176.09 		"/>
		<polygon class="st1" points="240.77,108.86 260.4,105.4 275,99.38 288.78,83.62 302.96,94.59 271.87,119.67 244.56,127.26 		"/>
		<polygon class="st1" points="162.33,219.72 175.77,212.38 192.68,240.26 179.4,248.18 		"/>
		<polygon class="st1" points="183.03,200.75 207.03,195.14 209.34,207.02 194.58,211.14 194.66,215.43 186.66,216.67 		"/>
		<polygon class="st2" points="288.69,125.28 310.39,103.5 303.38,96.98 320.45,82.38 340.33,99.38 302.39,132.37 		"/>
		<polygon class="st2" points="252.81,143.01 263.7,164.21 274.92,160.17 294.63,140.45 278.63,130.97 265.51,140.04 		"/>
		<polygon class="st0" points="238.71,144.41 253.8,174.68 235.82,181.7 225.84,181.7 219.82,188.46 195.65,185.41 188.06,174.44 
			206.62,146.64 213.05,142.85 		"/>
		<polygon class="st3" points="171.32,204.05 175.52,211.23 161.91,218.65 157.87,211.8 		"/>
		<circle class="st1" cx="227.16" cy="123.05" r="1.98"/>
		<path class="st1" d="M226.58,130.47c2.72,0.25,5.2-1.73,5.61-4.54c0.16-0.99,0.25-2.14,0.08-3.3l-2.39,0.74
			c-0.16,1.4-1.32,2.47-2.72,2.47c-0.16,0-0.33,0-0.58-0.08l-1.32,4.45C225.67,130.31,226.09,130.39,226.58,130.47z"/>
		<path class="st1" d="M237.96,112.74l-7.42-0.91l-1.81,2.64c4.62,3.88,4.62,8.91,4.21,11.55c-0.41,2.97-2.97,5.2-5.94,5.2
			c-0.16,0-0.41,0-0.58,0c-3.13-0.33-6.19-2.39-7.18-3.13l-1.9,2.72c7.34,7.67,22.27,4.45,22.27,4.45L237.96,112.74z"/>
		<path class="st1" d="M228.23,115.13l-8.5,12.29c0.74,0.58,2.64,1.9,4.78,2.56l1.4-4.45c-0.91-0.49-1.48-1.4-1.48-2.47
			c0-1.57,1.24-2.8,2.8-2.8c1.32,0,2.47,0.99,2.72,2.23l2.31-0.74C231.78,119.58,230.71,117.19,228.23,115.13z"/>
		<path class="st0" d="M423.23,340.4l4.37-8.08l-14.27-7.75c-1.4-0.74-2.89-1.24-4.45-1.48l-24.33-3.38l0,0l-130.41-70.85
			c-1.48-0.82-2.47-2.31-2.56-3.96l-3.71-50.81c-0.08-1.57,0.91-2.97,2.47-3.38l17.9-4.37c1.57-0.41,3.05-1.15,4.21-2.31
			l85.45-82.49l0,0l36.62-30.85c1.73-1.48,2.72-3.55,2.72-5.86V33.14h-9.16v27.55c0,2.23-0.99,4.37-2.72,5.86l-33.57,28.21l0,0
			l-84.3,81.17c-1.15,1.15-2.56,1.9-4.12,2.31l-22.52,5.69c-1.48,0.41-2.56,1.81-2.39,3.3l4.54,63.43c0.08,1.65,1.07,3.13,2.56,3.96
			l136.68,74.07l0,0l23.76,3.38c1.57,0.25,3.05,0.74,4.37,1.48L423.23,340.4z"/>
		<rect x="72.58" y="31.82" class="st4" width="404.51" height="10.89"/>
		<polygon class="st0" points="476.51,358.3 36.12,333.39 36.7,322.5 477.09,347.41 		"/>
		<rect x="438.61" y="18.57" transform="matrix(0.994 -0.1095 0.1095 0.994 -19.4958 49.8403)" width="10.89" height="367.72"/>
		<polygon class="st5" points="151.27,247.49 90.65,247.49 90.81,213.58 151.27,213.58 164.22,213.58 151.27,221.34 		"/>
		<polygon class="st6" points="189.16,261.95 222.28,261.95 222.28,234.82 189.16,234.82 178.16,234.82 189.16,241.56 		"/>
		<path class="st7" d="M143.11,221.54v-2.31h-14.52v2.31h-1.15v7.51h4.45l0,0h3.79l0,0h0.33l0,0h3.79l0,0h4.45v-7.51H143.11z
			 M135.68,228.47h-3.79v-4.78h3.79V228.47z M139.81,228.47h-3.79v-4.78h3.79V228.47z"/>
		<polygon class="st6" points="164.96,172.62 133.79,172.62 133.79,149.28 157.05,149.28 157.05,166.93 		"/>
		<polygon class="st6" points="234.54,115.62 234.54,90.8 215.98,90.8 215.98,109.36 230,109.27 		"/>
		<polygon class="st7" points="139.23,161.84 139.23,167.12 147.07,167.12 147.07,160.69 		"/>
		<polygon class="st7" points="151.6,167.12 151.6,161.93 147.64,160.69 147.64,167.12 		"/>
		<path class="st7" d="M148.22,154.25l-10.48,2.8v4.21l10.48-1.48l4.95,2.06v-3.71L148.22,154.25z M151.6,159.78l-3.38-1.98
			l-6.35,1.15v-0.99l6.35-1.65l3.38,2.39V159.78z"/>
		<polygon class="st6" points="221.69,159.11 221.69,151.82 249.27,151.82 249.27,164.23 211.79,164.23 		"/>
		<ellipse class="st7" cx="222.62" cy="97.52" rx="2.72" ry="3.3"/>
		<rect x="222.13" y="100.24" class="st7" width="0.99" height="5.2"/>
		<ellipse class="st7" cx="228.56" cy="99.33" rx="2.06" ry="2.31"/>
		<rect x="228.07" y="100.74" class="st7" width="0.99" height="3.96"/>
		<polygon class="st6" points="284.32,98.3 284.32,74.71 266.75,74.71 266.75,92.36 280.03,92.28 		"/>
		<path class="st7" d="M275.58,77.76c-3.05,0-5.53,2.47-5.53,5.53c0,3.05,2.47,5.53,5.53,5.53s5.53-2.47,5.53-5.53
			C281.1,80.24,278.55,77.76,275.58,77.76z M276.15,84.28h-1.48v1.9h-1.15V80.4h2.72c1.32,0,2.14,0.74,2.14,1.9
			C278.3,83.54,277.47,84.28,276.15,84.28z"/>
		<path class="st7" d="M276.15,81.48h-1.48v1.73h1.48c0.66,0,0.99-0.33,0.99-0.91C277.14,81.81,276.81,81.48,276.15,81.48z"/>
		<circle class="st7" cx="299.25" cy="102.92" r="4.95"/>
		<path class="st6" d="M299.25,96.65c-3.46,0-6.27,2.8-6.27,6.27c0,3.46,2.8,6.27,6.27,6.27s6.27-2.8,6.27-6.27
			C305.52,99.46,302.72,96.65,299.25,96.65z M299.83,106.55h-1.24v-4.7h1.24V106.55z M299.25,101.19c-0.41,0-0.74-0.33-0.74-0.74
			c0-0.41,0.33-0.74,0.74-0.74c0.41,0,0.74,0.33,0.74,0.74C299.99,100.86,299.66,101.19,299.25,101.19z"/>
		
			<rect x="99.45" y="78.15" transform="matrix(0.7071 -0.7071 0.7071 0.7071 -28.0467 97.8303)" class="st4" width="9.24" height="9.24"/>
		<text transform="matrix(1 0 0 1 101.1036 73.2539)" class="st6 st8 st9">N</text>
		<text transform="matrix(1 0 0 1 101.5665 97.0332)" class="st6 st8 st9">S</text>
		<text transform="matrix(1 0 0 1 113.2306 84.9531)" class="st6 st8 st9">E</text>
		<text transform="matrix(1 0 0 1 88.8429 84.9531)" class="st6 st8 st9">W</text>
		<rect x="325.49" y="148.89" class="st6" width="96.29" height="121.45"/>
		<path class="st7" d="M339.2,154.75c-3.46,0-6.27,2.8-6.27,6.27c0,3.46,2.8,6.27,6.27,6.27s6.27-2.8,6.27-6.27
			C345.47,157.55,342.66,154.75,339.2,154.75z M338.54,159.94h1.24v4.7h-1.24 M339.2,159.28c-0.41,0-0.74-0.33-0.74-0.74
			s0.33-0.74,0.74-0.74s0.74,0.33,0.74,0.74S339.61,159.28,339.2,159.28z"/>
		<g>
			<path class="st7" d="M338.95,193.6c-3.46,0-6.27,2.8-6.27,6.27c0,3.46,2.8,6.27,6.27,6.27s6.27-2.8,6.27-6.27
				C345.22,196.4,342.42,193.6,338.95,193.6z M339.69,201.1h-1.73v2.14h-1.32v-6.6h3.05c1.48,0,2.47,0.91,2.47,2.23
				C342.09,200.28,341.18,201.1,339.69,201.1z"/>
			<path class="st7" d="M339.69,197.89h-1.73v1.98h1.73c0.74,0,1.07-0.41,1.07-0.99C340.77,198.3,340.35,197.89,339.69,197.89z"/>
		</g>
		<g>
			<polygon class="st7" points="332.72,219.75 332.72,225.02 340.64,225.02 340.64,218.59 			"/>
			<polygon class="st7" points="345.1,225.02 345.1,219.83 341.22,218.59 341.22,225.02 			"/>
			<path class="st7" d="M341.71,212.16l-10.48,2.8v4.21l10.48-1.48l4.95,2.06v-3.71L341.71,212.16z M345.1,217.68l-3.38-1.98
				l-6.35,1.15v-0.99l6.35-1.65l3.38,2.39V217.68z"/>
		</g>
		<g>
			<ellipse class="st7" cx="335.39" cy="254.35" rx="2.97" ry="3.63"/>
			<rect x="334.81" y="257.32" class="st7" width="1.07" height="5.61"/>
			<ellipse class="st7" cx="341.83" cy="256.41" rx="2.23" ry="2.56"/>
			<rect x="341.33" y="257.89" class="st7" width="1.07" height="4.29"/>
		</g>
		<path class="st7" d="M346.21,178.59v-2.31h-14.52v2.31h-1.15v7.51h4.45l0,0h3.79l0,0h0.33l0,0h3.79l0,0h4.45v-7.51H346.21z
			 M338.87,185.43h-3.79v-4.78h3.79V185.43z M342.99,185.43h-3.79v-4.78h3.79V185.43z"/>
		<path class="st7" d="M331.27,236.48v5.64h16.66v-5.64H331.27z M334.33,238.48h-1.11v-0.86h1.11V238.48z M335.62,238.48h-1.11
			v-0.86h1.11V238.48z M336.9,238.48h-1.11v-0.86h1.11V238.48z M338.2,238.48h-1.11v-0.86h1.11V238.48z M339.51,238.48h-1.11v-0.86
			h1.11V238.48z M340.8,238.48h-1.11v-0.86h1.11V238.48z M342.08,238.48h-1.11v-0.86h1.11V238.48z M343.38,238.48h-1.11v-0.86h1.11
			V238.48z M344.69,238.48h-1.11v-0.86h1.11V238.48z M345.98,238.48h-1.11v-0.86h1.11V238.48z"/>
		<text transform="matrix(1 0 0 1 352.7902 160.9912)" class="st7 st8 st10">Information</text>
		<text transform="matrix(1 0 0 1 352.7902 168.749)" class="st7 st8 st10">Booth</text>
		<text transform="matrix(1 0 0 1 352.7902 180.7343)" class="st7 st8 st10">Kellogg </text>
		<text transform="matrix(1 0 0 1 352.7902 188.4863)" class="st7 st8 st10">Gallery</text>
		<text transform="matrix(1 0 0 1 352.7902 218.5937)" class="st7 st8 st10">University</text>
		<text transform="matrix(1 0 0 1 352.7902 226.3398)" class="st7 st8 st10">Library</text>
		<text transform="matrix(1 0 0 1 352.7902 256.8222)" class="st7 st8 st10">Voorhis</text>
		<text transform="matrix(1 0 0 1 352.7902 264.5791)" class="st7 st8 st10">Park</text>
		<text transform="matrix(1 0 0 1 352.7902 199.7763)" class="st7 st8 st10">Parking</text>
		<text transform="matrix(1 0 0 1 352.7902 207.5283)" class="st7 st8 st10">Structure</text>
		<text transform="matrix(1 0 0 1 352.7902 238.2949)" class="st11"><tspan x="0" y="0" class="st7 st8 st10">Student Service </tspan><tspan x="0" y="7.57" class="st7 st8 st10">Building</tspan></text>
		<rect x="96.34" y="215.84" class="st2" width="50.81" height="25.49"/>
		<rect x="195.65" y="240.26" class="st2" width="33.41" height="21.69"/>
		<rect x="100.63" y="67.12" class="st2" width="6.85" height="6.85"/>
		<rect x="100.63" y="92.45" class="st2" width="6.85" height="6.85"/>
		<rect x="111.84" y="79.41" class="st2" width="6.85" height="6.85"/>
		<rect x="88.5" y="79.41" class="st2" width="7.75" height="6.85"/>
		<polygon class="st5" points="289.19,116.28 296.86,113.4 293.31,109.19 		"/>
		<polygon class="st5" points="174.2,202.07 180.8,199.84 177.17,195.72 		"/>
		<polyline class="st12" points="286.8,119.25 244.89,140.78 208.43,139.3 183.03,174.6 189.46,186.15 180.14,196.79 		"/>
		<line class="st13" x1="258.17" y1="141.77" x2="271.04" y2="161.57"/>
		<line class="st13" x1="253.97" y1="142.76" x2="267.08" y2="162.97"/>
		<line class="st13" x1="262.38" y1="140.78" x2="274.92" y2="160.17"/>
		<line class="st13" x1="266.34" y1="139.46" x2="277.89" y2="157.2"/>
		<line class="st13" x1="276.4" y1="132.62" x2="286.63" y2="148.45"/>
		<line class="st13" x1="288.94" y1="137.07" x2="292.49" y2="142.6"/>
		<line class="st13" x1="281.1" y1="132.37" x2="289.6" y2="145.48"/>
		<line class="st13" x1="269.72" y1="137.15" x2="280.77" y2="154.31"/>
		<line class="st13" x1="273.02" y1="134.84" x2="283.74" y2="151.34"/>
		<line class="st13" x1="304.94" y1="108.94" x2="313.77" y2="122.47"/>
		<line class="st13" x1="302.06" y1="111.91" x2="310.72" y2="125.19"/>
		<line class="st13" x1="307.91" y1="105.97" x2="316.82" y2="119.75"/>
		<line class="st13" x1="305.6" y1="95.09" x2="319.95" y2="117.11"/>
		<line class="st13" x1="293.39" y1="120.57" x2="300.41" y2="131.38"/>
		<line class="st13" x1="290.51" y1="123.54" x2="293.06" y2="127.59"/>
		<line class="st13" x1="296.36" y1="117.6" x2="304.61" y2="130.39"/>
		<line class="st13" x1="299.25" y1="114.72" x2="307.75" y2="127.75"/>
		<line class="st13" x1="314.92" y1="87.09" x2="329.19" y2="109.03"/>
		<line class="st13" x1="322.92" y1="84.61" x2="335.3" y2="103.66"/>
		<line class="st13" x1="318.06" y1="84.45" x2="332.24" y2="106.39"/>
		<line class="st13" x1="334.14" y1="94.18" x2="338.51" y2="100.86"/>
		<line class="st13" x1="308.74" y1="92.45" x2="323.01" y2="114.39"/>
		<line class="st13" x1="311.87" y1="89.81" x2="326.06" y2="111.75"/>
		<rect x="264.89" y="141.25" class="st3" width="25.49" height="7.58"/>
		<rect x="310.72" y="96.32" class="st2" width="24.66" height="6.35"/>
		<rect x="258.83" y="143.26" class="st2" width="24.66" height="6.19"/>
		<text transform="matrix(1 0 0 1 267.8956 147.2597)" class="st7 st14 st9">Lot F8</text>
		<rect x="311.87" y="94.96" class="st3" width="25.49" height="7.34"/>
		<text transform="matrix(1 0 0 1 315.089 100.7773)" class="st7 st14 st9">Lot F9</text>
		<circle class="st15" cx="350.33" cy="37.14" r="13.86"/>
		<path class="st6" d="M348,41.47h-1.73v-6.6l-2.14,1.07v-1.57l2.72-1.57h1.07v8.66H348z"/>
		<path class="st6" d="M356.99,37.1c0,2.72-1.48,4.54-3.71,4.54s-3.71-1.81-3.71-4.54s1.48-4.54,3.71-4.54S356.99,34.46,356.99,37.1
			z M355.26,37.1c0-1.73-0.74-2.89-1.9-2.89s-1.9,1.15-1.9,2.89s0.74,2.89,1.9,2.89S355.26,38.83,355.26,37.1z"/>
		<circle class="st15" cx="447.89" cy="234.12" r="13.86"/>
		<path class="st6" d="M444.92,232.84c1.73,0,2.97,1.07,2.97,2.8c0,1.73-1.24,2.97-3.22,2.97c-1.73,0-3.22-0.99-3.22-2.97l1.65-0.33
			c0,1.24,0.74,1.73,1.57,1.73c0.91,0,1.48-0.58,1.48-1.4c0-0.74-0.58-1.24-1.4-1.24h-2.89l0.16-4.62h5.44v1.57h-3.79l-0.08,1.48
			L444.92,232.84L444.92,232.84z"/>
		<path class="st6" d="M454.24,231.02l-2.97,7.42h-1.9l2.97-7.09h-4.12v-1.57h6.02V231.02z"/>
		<path class="st7" d="M227.25,155.2v5.64h16.66v-5.64H227.25z M230.31,157.21h-1.11v-0.86h1.11V157.21z M231.61,157.21h-1.11v-0.86
			h1.11V157.21z M232.89,157.21h-1.11v-0.86h1.11V157.21z M234.18,157.21h-1.11v-0.86h1.11V157.21z M235.49,157.21h-1.11v-0.86h1.11
			V157.21z M236.79,157.21h-1.11v-0.86h1.11V157.21z M238.07,157.21h-1.11v-0.86h1.11V157.21z M239.36,157.21h-1.11v-0.86h1.11
			V157.21z M240.67,157.21h-1.11v-0.86h1.11V157.21z M241.97,157.21h-1.11v-0.86h1.11V157.21z"/>
		<path class="st4" d="M86.56,150.21c-0.07-0.14-0.01-0.31,0.14-0.38c0.14-0.07,0.31,0,0.38,0.13l1.1,2.29
			c0.36,0.76,1,1.04,1.77,0.68c0.77-0.37,0.95-1.04,0.58-1.8l-1.1-2.29c-0.07-0.14-0.01-0.31,0.14-0.38c0.14-0.07,0.31,0,0.38,0.13
			l1.1,2.3c0.49,1.03,0.24,1.96-0.88,2.5c-1.13,0.54-2.01,0.14-2.5-0.88L86.56,150.21z"/>
		<path class="st4" d="M95.58,150.58l-3.89-2.12l1.49,3.12c0.07,0.14,0,0.31-0.13,0.38c-0.15,0.07-0.32,0.01-0.38-0.13l-1.72-3.61
			c-0.09-0.18-0.01-0.41,0.17-0.5c0.11-0.05,0.24-0.05,0.34,0.01l3.82,2.06l-1.46-3.05c-0.07-0.14,0-0.31,0.13-0.38
			c0.15-0.07,0.32-0.01,0.38,0.13l1.73,3.63c0.08,0.17,0.01,0.39-0.17,0.47C95.8,150.64,95.68,150.64,95.58,150.58z"/>
		<path class="st4" d="M97.06,149.72l-1.76-3.69c-0.07-0.14-0.01-0.31,0.14-0.38c0.14-0.07,0.31,0,0.38,0.13l1.76,3.69
			c0.07,0.14,0,0.31-0.13,0.38C97.3,149.92,97.13,149.86,97.06,149.72z"/>
		<path class="st4" d="M99.67,148.44l-3.11-2.86c-0.03-0.02-0.05-0.05-0.07-0.09c-0.07-0.15-0.01-0.33,0.14-0.41
			c0.11-0.05,0.25-0.03,0.34,0.05l2.98,2.79l-0.3-4.07c-0.01-0.12,0.05-0.24,0.17-0.3c0.15-0.07,0.33-0.01,0.4,0.14
			c0.02,0.04,0.02,0.07,0.02,0.11l0.27,4.22c0.01,0.2-0.09,0.4-0.29,0.49C100.03,148.62,99.81,148.58,99.67,148.44z"/>
		<path class="st4" d="M102.61,147.02l-1.72-3.6c-0.08-0.17-0.03-0.32,0.14-0.41l2.24-1.07c0.12-0.06,0.29-0.01,0.35,0.12
			c0.06,0.12,0,0.28-0.13,0.34l-2,0.95l0.64,1.34l1.95-0.93c0.13-0.06,0.29-0.01,0.35,0.12c0.06,0.12,0,0.28-0.13,0.34l-1.95,0.93
			l0.68,1.43l2-0.95c0.12-0.06,0.29-0.01,0.35,0.12s0,0.28-0.13,0.34l-2.24,1.07C102.84,147.25,102.69,147.2,102.61,147.02z"/>
		<path class="st4" d="M109.15,143.97c0.05,0.11,0.01,0.28-0.14,0.36c-0.09,0.04-0.19,0.04-0.27,0l-1.83-1.05l-0.91,0.44l0.68,1.42
			c0.07,0.14,0,0.31-0.13,0.38c-0.15,0.07-0.32,0.01-0.38-0.13l-1.74-3.64c-0.08-0.17-0.03-0.32,0.14-0.41l1.39-0.66
			c0.76-0.36,1.53-0.14,1.9,0.63c0.34,0.71,0.07,1.33-0.42,1.67l1.59,0.88C109.06,143.86,109.11,143.89,109.15,143.97z
			 M105.78,143.26l1.09-0.52c0.49-0.23,0.67-0.73,0.45-1.19s-0.71-0.63-1.21-0.39l-1.09,0.52L105.78,143.26z"/>
		<path class="st4" d="M109.57,143.27c-0.07-0.14-0.01-0.31,0.13-0.37c0.06-0.03,0.13-0.04,0.18-0.02c0.39,0.11,0.87,0.12,1.35-0.11
			c0.74-0.35,0.79-0.86,0.63-1.18c-0.24-0.5-0.81-0.39-1.42-0.28c-0.75,0.14-1.58,0.31-1.97-0.51c-0.33-0.68,0.06-1.44,0.91-1.85
			c0.52-0.25,0.99-0.29,1.49-0.18c0.09,0.01,0.16,0.07,0.2,0.15c0.06,0.13,0.01,0.3-0.12,0.36c-0.06,0.03-0.12,0.03-0.18,0.02
			c-0.42-0.11-0.84-0.04-1.2,0.13c-0.54,0.26-0.76,0.69-0.58,1.08c0.2,0.42,0.74,0.31,1.34,0.2c0.76-0.14,1.64-0.3,2.05,0.57
			c0.29,0.6,0.17,1.42-0.95,1.95c-0.61,0.29-1.18,0.32-1.67,0.18C109.67,143.39,109.6,143.34,109.57,143.27z"/>
		<path class="st4" d="M113.57,141.84l-1.76-3.69c-0.07-0.14-0.01-0.31,0.14-0.38c0.14-0.07,0.31,0,0.38,0.13l1.76,3.69
			c0.07,0.14,0,0.31-0.13,0.38C113.8,142.04,113.64,141.97,113.57,141.84z"/>
		<path class="st4" d="M116.08,140.64l-1.65-3.46l-1.11,0.53c-0.12,0.06-0.28,0-0.34-0.12c-0.06-0.13,0-0.28,0.12-0.34l2.74-1.31
			c0.13-0.06,0.28,0,0.34,0.12c0.06,0.12,0,0.28-0.12,0.34l-1.11,0.53l1.65,3.46c0.07,0.14,0.01,0.31-0.13,0.38
			C116.32,140.84,116.15,140.78,116.08,140.64z"/>
		<path class="st4" d="M120,134.4l-0.41,2.7l0.73,1.52c0.07,0.14,0,0.31-0.14,0.38c-0.14,0.07-0.31,0-0.38-0.13l-0.73-1.52
			l-2.36-1.36c-0.05-0.02-0.09-0.07-0.11-0.12c-0.07-0.14-0.01-0.3,0.13-0.37c0.09-0.04,0.19-0.04,0.27,0.01l2.11,1.26l0.34-2.43
			c0.02-0.09,0.07-0.17,0.16-0.21c0.14-0.07,0.31-0.01,0.38,0.13C120,134.29,120.01,134.35,120,134.4z"/>
		<path class="st4" d="M124.06,136.77l-1.72-3.6c-0.08-0.17-0.03-0.32,0.14-0.41l1.14-0.55c1.29-0.61,2.56-0.12,3.12,1.06
			c0.56,1.18,0.15,2.47-1.14,3.09l-1.14,0.55C124.29,137,124.14,136.95,124.06,136.77z M125.39,135.91
			c1.01-0.48,1.25-1.48,0.82-2.37c-0.43-0.9-1.34-1.35-2.36-0.86l-0.9,0.43l1.54,3.23L125.39,135.91z"/>
		<path class="st4" d="M131.41,133.34c0.05,0.11,0.01,0.28-0.14,0.36c-0.09,0.04-0.19,0.04-0.27,0l-1.83-1.05l-0.91,0.44l0.68,1.42
			c0.07,0.14,0,0.31-0.13,0.38c-0.15,0.07-0.32,0.01-0.38-0.13l-1.74-3.64c-0.08-0.17-0.03-0.32,0.14-0.41l1.39-0.66
			c0.76-0.36,1.53-0.14,1.9,0.63c0.34,0.71,0.07,1.33-0.42,1.67l1.59,0.88C131.33,133.23,131.37,133.26,131.41,133.34z
			 M128.05,132.62l1.09-0.52c0.49-0.23,0.67-0.73,0.45-1.19c-0.22-0.47-0.71-0.63-1.21-0.39l-1.09,0.52L128.05,132.62z"/>
		<path class="st4" d="M132.2,132.94l-1.76-3.69c-0.07-0.14-0.01-0.31,0.14-0.38c0.14-0.07,0.31,0,0.38,0.13l1.76,3.69
			c0.07,0.14,0,0.31-0.13,0.38C132.43,133.14,132.26,133.08,132.2,132.94z"/>
		<path class="st4" d="M134.8,131.66l-3.11-2.86c-0.03-0.02-0.05-0.05-0.07-0.09c-0.07-0.15-0.01-0.33,0.14-0.41
			c0.11-0.05,0.25-0.03,0.34,0.05l2.98,2.79l-0.3-4.07c-0.01-0.12,0.05-0.24,0.17-0.3c0.15-0.07,0.33-0.01,0.4,0.14
			c0.02,0.04,0.02,0.07,0.02,0.11l0.27,4.22c0.01,0.2-0.09,0.4-0.29,0.49C135.17,131.83,134.95,131.8,134.8,131.66z"/>
		<path class="st4" d="M137.74,130.24l-1.72-3.6c-0.08-0.17-0.03-0.32,0.14-0.41l2.24-1.07c0.12-0.06,0.29-0.01,0.35,0.12
			c0.06,0.12,0,0.28-0.13,0.34l-2,0.95l0.64,1.34l1.95-0.93c0.13-0.06,0.29-0.01,0.35,0.12c0.06,0.12,0,0.28-0.13,0.34l-1.95,0.93
			l0.68,1.43l2-0.95c0.12-0.06,0.29-0.01,0.35,0.12c0.06,0.12,0,0.28-0.13,0.34l-2.24,1.07
			C137.97,130.46,137.83,130.41,137.74,130.24z"/>
		<path class="st4" d="M179.33,167.96c0.79-1.1,2.16-1.26,3.26-0.47c1.1,0.79,1.39,2.14,0.6,3.24c-0.8,1.11-2.16,1.26-3.26,0.47
			C178.83,170.41,178.53,169.07,179.33,167.96z M179.74,168.26c-0.6,0.84-0.34,1.83,0.53,2.46c0.87,0.62,1.9,0.56,2.5-0.28
			c0.6-0.83,0.34-1.84-0.53-2.46C181.37,167.35,180.34,167.43,179.74,168.26z"/>
		<path class="st4" d="M184.78,168l-3.36-2.42c-0.11-0.08-0.14-0.24-0.05-0.36c0.08-0.11,0.24-0.14,0.36-0.06l3.36,2.42
			c0.11,0.08,0.14,0.25,0.06,0.36C185.05,168.05,184.89,168.08,184.78,168z"/>
		<path class="st4" d="M182.28,164.41c-0.16-0.11-0.19-0.33-0.08-0.49c0.11-0.16,0.33-0.19,0.49-0.08c0.16,0.11,0.19,0.33,0.07,0.49
			C182.65,164.48,182.44,164.52,182.28,164.41z M185.68,166.74l-2.33-1.68c-0.11-0.08-0.14-0.24-0.05-0.36
			c0.08-0.11,0.24-0.14,0.36-0.06l2.33,1.68c0.11,0.08,0.14,0.25,0.05,0.36C185.95,166.8,185.79,166.82,185.68,166.74z"/>
		<path class="st4" d="M185.84,161.6c0.03,0.02,0.05,0.06,0.07,0.08l1.57,2.56c0.09,0.14,0.08,0.31-0.01,0.44
			c-0.1,0.14-0.26,0.2-0.42,0.16l-2.93-0.68c-0.03-0.01-0.07-0.02-0.1-0.04c-0.12-0.08-0.15-0.24-0.07-0.36
			c0.07-0.09,0.18-0.13,0.27-0.1l2.73,0.66l-1.51-2.37c-0.05-0.08-0.05-0.2,0.01-0.29C185.56,161.54,185.72,161.52,185.84,161.6z"/>
		<path class="st4" d="M186.81,159.72c0.59-0.82,1.57-0.84,2.28-0.33c0.13,0.1,0.15,0.24,0.04,0.4l-1.4,1.94
			c0.53,0.33,1.22,0.28,1.63-0.3c0.19-0.26,0.28-0.58,0.27-0.91c0-0.04,0.02-0.08,0.05-0.11c0.07-0.09,0.2-0.12,0.29-0.05
			c0.06,0.04,0.09,0.1,0.09,0.17c0.02,0.42-0.1,0.82-0.37,1.19c-0.57,0.8-1.57,0.96-2.41,0.35
			C186.48,161.5,186.25,160.49,186.81,159.72z M187.41,161.5l1.28-1.77c-0.41-0.28-1.1-0.37-1.54,0.24
			C186.73,160.55,187.02,161.18,187.41,161.5z"/>
		<path class="st4" d="M191.79,158.1l-3.28-2.36c-0.12-0.09-0.16-0.27-0.06-0.4c0.09-0.12,0.27-0.15,0.4-0.07l3.11,2.24l1.11-1.55
			c0.08-0.11,0.25-0.14,0.36-0.06c0.11,0.08,0.14,0.25,0.05,0.36l-1.27,1.77C192.1,158.19,191.95,158.21,191.79,158.1z"/>
		<path class="st4" d="M193.68,152.08l1.67,1.2c0.11,0.08,0.14,0.24,0.05,0.36c-0.08,0.11-0.24,0.14-0.36,0.06l-0.12-0.09
			c0.09,0.39,0,0.8-0.27,1.16c-0.33,0.46-0.99,0.72-1.57,0.3c-0.6-0.43-0.54-1.13-0.21-1.59c0.27-0.37,0.6-0.59,1.01-0.63
			l-0.49-0.35c-0.36-0.26-0.78-0.12-1.06,0.27c-0.19,0.27-0.28,0.55-0.24,0.9c0,0.04-0.01,0.09-0.05,0.14
			c-0.07,0.1-0.2,0.12-0.3,0.05c-0.06-0.04-0.09-0.11-0.09-0.17c-0.04-0.45,0.07-0.84,0.35-1.23
			C192.42,151.9,193.02,151.61,193.68,152.08z M194.66,153.42l-0.51-0.37c-0.34,0-0.66,0.21-0.87,0.5
			c-0.28,0.39-0.23,0.84,0.12,1.09c0.34,0.25,0.78,0.15,1.07-0.24C194.68,154.11,194.77,153.75,194.66,153.42z"/>
		<path class="st4" d="M195.85,148.97l1.71,1.23c0.11,0.08,0.14,0.24,0.05,0.36c-0.08,0.11-0.24,0.14-0.36,0.06l-1.58-1.14
			c-0.48-0.34-0.8-0.21-1.06,0.15c-0.24,0.33-0.26,0.79-0.15,1.1l1.79,1.29c0.11,0.08,0.14,0.25,0.06,0.36
			c-0.08,0.12-0.25,0.14-0.36,0.06l-2.33-1.68c-0.11-0.08-0.14-0.24-0.06-0.36c0.08-0.12,0.25-0.14,0.36-0.06l0.21,0.15
			c-0.09-0.35-0.07-0.88,0.23-1.3C194.76,148.64,195.26,148.55,195.85,148.97z"/>
		<path class="st4" d="M196.42,146.34c0.59-0.82,1.57-0.84,2.28-0.33c0.13,0.1,0.15,0.24,0.04,0.4l-1.4,1.94
			c0.53,0.33,1.22,0.28,1.63-0.3c0.19-0.26,0.28-0.58,0.27-0.91c0-0.04,0.02-0.08,0.05-0.11c0.07-0.09,0.2-0.12,0.29-0.05
			c0.06,0.04,0.09,0.1,0.09,0.17c0.02,0.42-0.1,0.82-0.37,1.19c-0.57,0.8-1.57,0.96-2.41,0.35
			C196.1,148.12,195.87,147.11,196.42,146.34z M197.03,148.12l1.28-1.77c-0.41-0.28-1.1-0.37-1.54,0.24
			C196.35,147.17,196.63,147.8,197.03,148.12z"/>
		<path class="st4" d="M203.45,141.94l-3.34-1.24l2.25,2.77c0.12,0.14,0.12,0.33,0.01,0.49c-0.11,0.15-0.29,0.2-0.46,0.14l-3.88-1.4
			c-0.03-0.01-0.06-0.03-0.08-0.04c-0.13-0.1-0.17-0.29-0.07-0.42c0.08-0.11,0.23-0.15,0.35-0.1l3.52,1.33l-2.37-2.93
			c-0.09-0.11-0.09-0.25-0.01-0.37c0.08-0.11,0.22-0.15,0.35-0.11l3.54,1.31l-2.39-2.9c-0.09-0.1-0.1-0.26-0.02-0.37
			c0.1-0.14,0.29-0.17,0.42-0.07c0.02,0.02,0.05,0.04,0.06,0.06l2.56,3.23c0.12,0.14,0.12,0.33,0.01,0.48
			C203.81,141.95,203.62,142.01,203.45,141.94z"/>
		<path class="st4" d="M204.69,136.76l1.67,1.2c0.11,0.08,0.14,0.24,0.05,0.36c-0.08,0.11-0.24,0.14-0.36,0.06l-0.12-0.09
			c0.09,0.39,0,0.8-0.27,1.16c-0.33,0.46-0.99,0.72-1.57,0.3c-0.6-0.43-0.54-1.13-0.21-1.59c0.27-0.37,0.6-0.59,1.01-0.63
			l-0.49-0.35c-0.36-0.26-0.78-0.12-1.06,0.27c-0.19,0.27-0.28,0.55-0.24,0.9c0,0.04-0.01,0.09-0.05,0.14
			c-0.07,0.1-0.2,0.12-0.3,0.05c-0.06-0.04-0.09-0.11-0.09-0.17c-0.04-0.45,0.07-0.84,0.35-1.23
			C203.43,136.58,204.03,136.29,204.69,136.76z M205.67,138.1l-0.51-0.37c-0.34,0-0.66,0.21-0.87,0.5
			c-0.28,0.39-0.23,0.84,0.12,1.09c0.34,0.25,0.78,0.15,1.07-0.24C205.69,138.79,205.78,138.43,205.67,138.1z"/>
		<path class="st4" d="M206.96,137.13l-3.36-2.42c-0.11-0.08-0.14-0.24-0.05-0.36c0.08-0.11,0.24-0.14,0.36-0.06l3.36,2.42
			c0.11,0.08,0.14,0.25,0.06,0.36C207.23,137.18,207.07,137.21,206.96,137.13z"/>
		<path class="st4" d="M209.47,133.63c0.12,0.08,0.15,0.24,0.06,0.36c-0.04,0.06-0.1,0.1-0.18,0.11l-1.88,0.15l0.1,0.76l0.6,0.43
			c0.11,0.08,0.14,0.25,0.05,0.36c-0.08,0.11-0.24,0.14-0.36,0.06l-3.36-2.42c-0.11-0.08-0.14-0.24-0.05-0.36
			c0.08-0.11,0.24-0.14,0.36-0.06l2.29,1.65l-0.37-2.48c-0.01-0.07,0.01-0.12,0.05-0.17c0.08-0.11,0.23-0.13,0.33-0.05
			c0.05,0.03,0.08,0.1,0.09,0.15l0.23,1.64l1.86-0.19C209.35,133.57,209.42,133.6,209.47,133.63z"/>
		<path class="st4" d="M281.39,127.55l2.31-3.31c0.11-0.16,0.26-0.19,0.42-0.07l1.27,0.88c0.76,0.53,0.82,1.34,0.39,1.96
			s-1.23,0.83-1.97,0.31l-1.05-0.73l-0.9,1.29c-0.09,0.12-0.27,0.16-0.4,0.07C281.33,127.86,281.31,127.68,281.39,127.55z
			 M285.04,125.43l-0.99-0.69l-1,1.44l0.99,0.69c0.45,0.31,0.96,0.23,1.25-0.19C285.59,126.24,285.49,125.74,285.04,125.43z"/>
		<path class="st4" d="M287.87,129.59l-1.18,1.69c-0.08,0.11-0.24,0.14-0.36,0.06c-0.11-0.08-0.14-0.24-0.06-0.36l0.09-0.12
			c-0.39,0.1-0.8,0.01-1.17-0.25c-0.46-0.32-0.74-0.98-0.32-1.57c0.43-0.61,1.12-0.56,1.58-0.23c0.37,0.26,0.6,0.59,0.64,1
			l0.34-0.49c0.26-0.37,0.11-0.78-0.29-1.06c-0.27-0.19-0.55-0.27-0.9-0.23c-0.04,0-0.09-0.01-0.14-0.04
			c-0.1-0.07-0.12-0.2-0.05-0.3c0.04-0.06,0.11-0.09,0.17-0.09c0.45-0.05,0.84,0.06,1.23,0.33
			C288.03,128.33,288.33,128.93,287.87,129.59z M286.54,130.59l0.36-0.51c-0.01-0.34-0.22-0.65-0.51-0.86
			c-0.39-0.28-0.85-0.22-1.09,0.13c-0.24,0.35-0.14,0.79,0.26,1.06C285.85,130.62,286.22,130.71,286.54,130.59z"/>
		<path class="st4" d="M287.53,131.87l2.37-3.4c0.08-0.11,0.24-0.14,0.36-0.06c0.11,0.08,0.14,0.24,0.06,0.36l-2.37,3.4
			c-0.08,0.11-0.24,0.14-0.36,0.06C287.48,132.14,287.46,131.98,287.53,131.87z"/>
		<path class="st4" d="M293.77,133.56l-1.25,1.79c-0.08,0.11-0.25,0.14-0.36,0.06c-0.11-0.08-0.14-0.24-0.06-0.36l1.16-1.67
			c0.24-0.35,0.24-0.67-0.11-0.92c-0.28-0.2-0.72-0.2-1.02-0.09l-1.26,1.82c-0.08,0.11-0.24,0.14-0.35,0.06
			c-0.11-0.08-0.15-0.25-0.07-0.36l1.16-1.67c0.24-0.35,0.25-0.67-0.11-0.92c-0.28-0.19-0.71-0.19-1.01-0.08l-1.26,1.81
			c-0.08,0.11-0.24,0.14-0.36,0.06c-0.12-0.08-0.15-0.25-0.07-0.36l1.64-2.36c0.08-0.11,0.24-0.14,0.36-0.06
			c0.12,0.08,0.15,0.25,0.07,0.36l-0.15,0.21c0.22-0.09,0.8-0.13,1.2,0.15c0.42,0.29,0.5,0.68,0.38,1.02
			c0.33-0.14,0.87-0.15,1.27,0.13C294.08,132.55,294.15,133.01,293.77,133.56z"/>
		<path class="st4" d="M294.88,136.89l2.28-3.27c0.11-0.16,0.26-0.19,0.42-0.07l1.04,0.72c1.17,0.82,1.36,2.17,0.62,3.24
			c-0.75,1.07-2.08,1.35-3.25,0.53l-1.04-0.72C294.8,137.21,294.77,137.05,294.88,136.89z M296.29,137.62
			c0.92,0.64,1.9,0.35,2.47-0.46c0.57-0.81,0.51-1.83-0.42-2.48l-0.82-0.57l-2.05,2.93L296.29,137.62z"/>
		<path class="st4" d="M301.8,138.26c-0.07,0.1-0.22,0.13-0.38,0.05c-0.26-0.16-0.73-0.2-1.01-0.06l-1.22,1.75
			c-0.08,0.11-0.24,0.14-0.36,0.06c-0.12-0.08-0.15-0.25-0.07-0.36l1.64-2.36c0.08-0.11,0.24-0.14,0.36-0.06
			c0.12,0.08,0.15,0.25,0.07,0.36l-0.18,0.25c0.32-0.11,0.67-0.13,0.93-0.03c0.07,0.02,0.11,0.03,0.16,0.07
			C301.87,138.01,301.87,138.15,301.8,138.26z"/>
		<path class="st4" d="M300.65,140.45c0.17,0.12,0.21,0.36,0.09,0.53c-0.12,0.17-0.36,0.21-0.53,0.1c-0.17-0.12-0.21-0.36-0.09-0.53
			C300.25,140.37,300.49,140.33,300.65,140.45z"/>
		<path class="st4" d="M294.5,159.08c0.11,0.11,0.11,0.28,0,0.38c-0.05,0.05-0.12,0.09-0.21,0.08l-2.69-0.17l0.01,0.67l0.9,0.94
			c0.11,0.11,0.1,0.3-0.01,0.41s-0.29,0.1-0.4-0.01l-2.84-2.94c-0.11-0.11-0.11-0.29,0.01-0.4s0.3-0.11,0.41,0l1.48,1.53l-0.1-3.13
			c-0.01-0.09,0.03-0.15,0.08-0.2c0.1-0.1,0.28-0.11,0.38,0c0.05,0.05,0.07,0.11,0.07,0.19l0.03,2.44l2.69,0.14
			C294.39,159.01,294.46,159.04,294.5,159.08z"/>
		<path class="st4" d="M295.05,158.48l-2.77-2.87c-0.13-0.14-0.13-0.29,0.01-0.43l1.79-1.72c0.1-0.09,0.27-0.1,0.37,0
			c0.1,0.1,0.09,0.27-0.01,0.36l-1.59,1.54l1.03,1.07l1.56-1.5c0.1-0.1,0.27-0.1,0.37,0c0.1,0.1,0.09,0.27-0.01,0.37l-1.56,1.5
			l1.1,1.14l1.59-1.54c0.1-0.09,0.27-0.1,0.37,0c0.1,0.1,0.09,0.27-0.01,0.37l-1.79,1.72C295.34,158.62,295.18,158.62,295.05,158.48
			z"/>
		<path class="st4" d="M297.86,155.76l-2.8-2.91c-0.11-0.11-0.11-0.29,0.01-0.4c0.11-0.11,0.3-0.1,0.4,0.01l2.66,2.76l1.37-1.32
			c0.1-0.1,0.27-0.1,0.37,0s0.09,0.27-0.01,0.37l-1.57,1.51C298.15,155.9,298,155.9,297.86,155.76z"/>
		<path class="st4" d="M300.39,153.32l-2.8-2.91c-0.11-0.11-0.11-0.29,0.01-0.4c0.11-0.11,0.3-0.1,0.4,0.01l2.66,2.76l1.37-1.32
			c0.1-0.1,0.27-0.1,0.37,0c0.1,0.1,0.09,0.27-0.01,0.37l-1.57,1.51C300.68,153.47,300.52,153.46,300.39,153.32z"/>
		<path class="st4" d="M301.22,146.45c0.98-0.94,2.35-0.85,3.29,0.13c0.94,0.98,0.99,2.35,0.01,3.3c-0.98,0.95-2.35,0.85-3.29-0.13
			S300.24,147.4,301.22,146.45z M301.57,146.82c-0.74,0.72-0.66,1.74,0.08,2.52c0.74,0.77,1.77,0.89,2.51,0.17
			c0.74-0.71,0.66-1.75-0.08-2.52C303.34,146.21,302.31,146.1,301.57,146.82z"/>
		<path class="st4" d="M308.18,143.37l0.78,0.81c0.11,0.11,0.17,0.22,0.15,0.38c-0.03,0.57-0.27,1.15-0.75,1.61
			c-0.94,0.91-2.37,0.95-3.36-0.07c-0.99-1.03-0.89-2.44,0.05-3.35c0.49-0.47,1.01-0.65,1.58-0.64c0.06,0,0.13,0.03,0.18,0.08
			c0.1,0.11,0.1,0.27-0.01,0.37c-0.05,0.05-0.12,0.08-0.19,0.08c-0.43-0.01-0.87,0.15-1.21,0.48c-0.73,0.7-0.74,1.78,0.02,2.57
			c0.76,0.78,1.85,0.82,2.58,0.12c0.4-0.38,0.54-0.89,0.54-1.21l-0.65-0.67l-0.97,0.94c-0.1,0.09-0.26,0.09-0.36-0.01
			c-0.1-0.1-0.09-0.26,0-0.36l1.17-1.13C307.89,143.22,308.04,143.23,308.18,143.37z"/>
		<path class="st4" d="M311.71,139.96l0.78,0.81c0.11,0.11,0.17,0.22,0.15,0.38c-0.03,0.57-0.27,1.15-0.75,1.61
			c-0.94,0.91-2.37,0.95-3.36-0.07c-0.99-1.03-0.89-2.44,0.05-3.35c0.49-0.47,1.01-0.65,1.58-0.64c0.06,0,0.13,0.03,0.18,0.08
			c0.1,0.11,0.1,0.27-0.01,0.37c-0.05,0.05-0.12,0.08-0.19,0.08c-0.43-0.01-0.87,0.15-1.21,0.48c-0.73,0.7-0.74,1.78,0.02,2.57
			c0.76,0.78,1.85,0.82,2.58,0.12c0.4-0.38,0.54-0.89,0.54-1.21l-0.65-0.67l-0.97,0.94c-0.1,0.09-0.26,0.09-0.36-0.01
			c-0.1-0.1-0.09-0.26,0-0.36l1.17-1.13C311.42,139.82,311.57,139.82,311.71,139.96z"/>
		<path class="st4" d="M314.87,139.35l-2.77-2.87c-0.13-0.14-0.13-0.29,0.01-0.43l0.91-0.88c1.03-0.99,2.39-0.92,3.3,0.02
			c0.91,0.94,0.92,2.3-0.1,3.29l-0.91,0.88C315.16,139.5,315,139.49,314.87,139.35z M315.85,138.11c0.8-0.78,0.71-1.8,0.03-2.51
			c-0.69-0.71-1.7-0.85-2.51-0.06l-0.72,0.69l2.48,2.57L315.85,138.11z"/>
		<path class="st4" d="M320.76,133.77c0.08,0.08,0.1,0.27-0.02,0.38c-0.07,0.07-0.16,0.1-0.25,0.08l-2.07-0.42l-0.73,0.7l1.09,1.13
			c0.11,0.11,0.1,0.3-0.01,0.4c-0.12,0.11-0.3,0.11-0.4,0l-2.8-2.91c-0.13-0.14-0.13-0.29,0.01-0.43l1.11-1.07
			c0.61-0.58,1.41-0.61,2,0c0.55,0.57,0.49,1.24,0.13,1.71l1.78,0.33C320.64,133.69,320.69,133.7,320.76,133.77z M317.34,134.15
			l0.87-0.84c0.39-0.38,0.41-0.9,0.05-1.27s-0.88-0.37-1.27,0.01l-0.87,0.84L317.34,134.15z"/>
		<path class="st4" d="M321.38,133.14l-2.84-2.94c-0.11-0.11-0.11-0.29,0.01-0.4c0.11-0.11,0.3-0.1,0.4,0.01l2.84,2.94
			c0.11,0.11,0.1,0.3-0.01,0.4C321.66,133.26,321.48,133.25,321.38,133.14z"/>
		<path class="st4" d="M323.44,131.1l-3.86-1.73c-0.04-0.01-0.07-0.03-0.1-0.06c-0.12-0.12-0.12-0.31,0.01-0.43
			c0.09-0.09,0.23-0.11,0.34-0.06l3.71,1.7l-1.57-3.77c-0.05-0.11-0.03-0.24,0.07-0.34c0.12-0.12,0.31-0.11,0.43,0.01
			c0.03,0.03,0.04,0.06,0.06,0.1l1.59,3.92c0.08,0.19,0.04,0.41-0.12,0.55C323.85,131.15,323.62,131.19,323.44,131.1z"/>
		<path class="st4" d="M325.78,128.82l-2.77-2.87c-0.13-0.14-0.13-0.29,0.01-0.43l1.79-1.72c0.1-0.09,0.27-0.1,0.37,0
			c0.1,0.1,0.09,0.27-0.01,0.36l-1.59,1.54l1.03,1.07l1.56-1.5c0.1-0.1,0.27-0.1,0.37,0c0.1,0.1,0.09,0.27-0.01,0.37l-1.56,1.5
			l1.1,1.14l1.59-1.54c0.1-0.09,0.27-0.1,0.37,0c0.1,0.1,0.09,0.27-0.01,0.37l-1.79,1.72C326.07,128.97,325.92,128.96,325.78,128.82
			z"/>
		<path class="st4" d="M282.91,272.07c-0.07,0.13-0.24,0.19-0.36,0.12c-0.07-0.04-0.12-0.09-0.14-0.17l-0.66-2.61l-0.64,0.21
			l-0.62,1.15c-0.07,0.13-0.25,0.19-0.39,0.11c-0.14-0.08-0.19-0.25-0.11-0.38l1.93-3.6c0.07-0.13,0.24-0.19,0.38-0.12
			c0.14,0.08,0.19,0.25,0.12,0.39l-1.01,1.88l2.95-1.05c0.08-0.03,0.15-0.02,0.22,0.02c0.13,0.07,0.19,0.23,0.12,0.36
			c-0.03,0.06-0.09,0.1-0.15,0.13l-2.31,0.78l0.69,2.6C282.95,271.94,282.94,272.02,282.91,272.07z"/>
		<path class="st4" d="M283.65,272.41l1.88-3.52c0.09-0.17,0.24-0.22,0.41-0.12l2.19,1.17c0.12,0.06,0.18,0.23,0.11,0.35
			c-0.07,0.12-0.23,0.16-0.35,0.1l-1.95-1.04l-0.7,1.31l1.91,1.02c0.12,0.07,0.18,0.23,0.11,0.35c-0.07,0.12-0.23,0.17-0.35,0.1
			l-1.91-1.02l-0.75,1.4l1.95,1.04c0.12,0.06,0.18,0.23,0.11,0.35c-0.07,0.12-0.23,0.17-0.35,0.1l-2.19-1.17
			C283.61,272.73,283.56,272.58,283.65,272.41z"/>
		<path class="st4" d="M287.1,274.26l1.91-3.56c0.07-0.13,0.24-0.19,0.39-0.11c0.13,0.07,0.19,0.25,0.12,0.38l-1.81,3.38l1.68,0.9
			c0.12,0.07,0.18,0.23,0.11,0.35c-0.07,0.12-0.23,0.17-0.35,0.1l-1.92-1.03C287.06,274.57,287.01,274.43,287.1,274.26z"/>
		<path class="st4" d="M290.2,275.91l1.91-3.56c0.07-0.13,0.24-0.19,0.39-0.11c0.13,0.07,0.19,0.25,0.12,0.38L290.8,276l1.68,0.9
			c0.12,0.07,0.18,0.23,0.11,0.35c-0.07,0.12-0.23,0.17-0.35,0.1l-1.92-1.03C290.15,276.23,290.11,276.08,290.2,275.91z"/>
		<path class="st4" d="M297,274.6c1.2,0.64,1.53,1.98,0.89,3.17c-0.64,1.2-1.94,1.66-3.13,1.02c-1.2-0.65-1.53-1.98-0.89-3.17
			C294.5,274.42,295.79,273.95,297,274.6z M296.76,275.05c-0.91-0.49-1.86-0.1-2.37,0.85c-0.5,0.94-0.31,1.95,0.61,2.44
			c0.9,0.48,1.87,0.09,2.37-0.85C297.87,276.54,297.66,275.53,296.76,275.05z"/>
		<path class="st4" d="M302.06,280.28l-0.53,0.99c-0.08,0.14-0.16,0.23-0.31,0.26c-0.55,0.14-1.17,0.1-1.76-0.22
			c-1.15-0.62-1.63-1.96-0.96-3.22c0.67-1.26,2.05-1.6,3.21-0.98c0.59,0.32,0.93,0.77,1.1,1.31c0.02,0.06,0.01,0.13-0.02,0.2
			c-0.07,0.13-0.23,0.17-0.35,0.11c-0.07-0.04-0.12-0.09-0.14-0.16c-0.12-0.41-0.41-0.78-0.83-1.01c-0.89-0.48-1.93-0.16-2.44,0.81
			c-0.51,0.96-0.21,2.01,0.68,2.49c0.49,0.26,1.01,0.24,1.32,0.15l0.44-0.83l-1.19-0.64c-0.12-0.06-0.17-0.22-0.1-0.34
			c0.07-0.12,0.22-0.17,0.34-0.11l1.43,0.77C302.11,279.96,302.15,280.11,302.06,280.28z"/>
		<path class="st4" d="M306.38,282.6l-0.53,0.99c-0.08,0.14-0.16,0.23-0.31,0.26c-0.55,0.14-1.17,0.1-1.76-0.22
			c-1.15-0.62-1.63-1.96-0.96-3.22c0.67-1.26,2.05-1.6,3.21-0.98c0.59,0.32,0.93,0.77,1.1,1.31c0.02,0.06,0.01,0.13-0.02,0.2
			c-0.07,0.13-0.23,0.17-0.35,0.11c-0.07-0.04-0.12-0.09-0.14-0.16c-0.12-0.41-0.41-0.78-0.83-1.01c-0.89-0.48-1.93-0.16-2.44,0.81
			c-0.51,0.96-0.21,2.01,0.68,2.49c0.49,0.26,1.01,0.24,1.32,0.15l0.44-0.83l-1.19-0.64c-0.12-0.06-0.17-0.22-0.1-0.34
			c0.07-0.12,0.22-0.17,0.34-0.11l1.43,0.77C306.43,282.28,306.48,282.42,306.38,282.6z"/>
		<path class="st4" d="M307.93,285.42l1.88-3.52c0.09-0.17,0.24-0.22,0.41-0.12l1.12,0.6c1.26,0.67,1.61,1.99,0.99,3.14
			c-0.62,1.15-1.91,1.58-3.16,0.91l-1.12-0.6C307.89,285.74,307.84,285.59,307.93,285.42z M309.42,285.98
			c0.98,0.53,1.93,0.13,2.4-0.74c0.47-0.88,0.29-1.88-0.71-2.41l-0.88-0.47l-1.69,3.15L309.42,285.98z"/>
		<path class="st4" d="M315.05,289.31c-0.05,0.1-0.22,0.18-0.37,0.1c-0.08-0.05-0.14-0.12-0.16-0.22l-0.24-2.1l-0.89-0.48
			l-0.74,1.38c-0.07,0.13-0.25,0.19-0.38,0.12c-0.14-0.08-0.19-0.25-0.12-0.39l1.91-3.56c0.09-0.17,0.24-0.22,0.41-0.12l1.36,0.73
			c0.74,0.4,1.02,1.15,0.61,1.9c-0.37,0.69-1.03,0.85-1.59,0.65l0.23,1.8C315.09,289.18,315.1,289.23,315.05,289.31z M313.64,286.18
			l1.06,0.57c0.48,0.26,0.98,0.11,1.23-0.34s0.08-0.95-0.4-1.21l-1.06-0.57L313.64,286.18z"/>
		<path class="st4" d="M315.84,289.71l1.93-3.6c0.07-0.13,0.24-0.19,0.39-0.11c0.13,0.07,0.19,0.25,0.12,0.38l-1.93,3.6
			c-0.07,0.13-0.25,0.19-0.38,0.12C315.82,290.02,315.77,289.84,315.84,289.71z"/>
		<path class="st4" d="M318.42,291.05l0.46-4.2c0-0.04,0.01-0.07,0.03-0.11c0.08-0.15,0.26-0.21,0.41-0.12
			c0.11,0.06,0.18,0.18,0.16,0.3l-0.48,4.06l3.11-2.65c0.09-0.08,0.22-0.1,0.34-0.04c0.15,0.08,0.2,0.26,0.12,0.41
			c-0.02,0.04-0.05,0.06-0.08,0.08l-3.24,2.71c-0.16,0.13-0.38,0.16-0.56,0.06C318.49,291.45,318.39,291.25,318.42,291.05z"/>
		<path class="st4" d="M321.3,292.58l1.88-3.52c0.09-0.17,0.24-0.22,0.41-0.12l2.19,1.17c0.12,0.06,0.18,0.23,0.11,0.35
			c-0.07,0.12-0.23,0.16-0.35,0.1l-1.95-1.05l-0.7,1.31l1.91,1.02c0.12,0.07,0.18,0.23,0.11,0.35c-0.07,0.12-0.23,0.17-0.35,0.1
			l-1.91-1.02l-0.75,1.4l1.95,1.04c0.12,0.06,0.18,0.23,0.11,0.35c-0.07,0.12-0.23,0.17-0.35,0.1l-2.19-1.17
			C321.25,292.9,321.21,292.75,321.3,292.58z"/>
		<path class="st4" d="M241.59,341.7l-0.75-3.49l-1.12,3.38c-0.06,0.18-0.22,0.28-0.4,0.27c-0.19-0.01-0.33-0.13-0.37-0.31
			l-0.91-4.03c-0.01-0.03-0.01-0.06-0.01-0.09c0.01-0.17,0.16-0.29,0.32-0.29c0.14,0.01,0.25,0.11,0.28,0.24l0.77,3.68l1.2-3.58
			c0.04-0.13,0.16-0.21,0.31-0.2c0.14,0.01,0.25,0.1,0.28,0.24l0.8,3.69l1.16-3.57c0.04-0.13,0.16-0.22,0.3-0.21
			c0.17,0.01,0.3,0.15,0.29,0.32c0,0.03-0.01,0.06-0.02,0.09l-1.35,3.9c-0.05,0.17-0.21,0.28-0.39,0.27
			C241.77,342,241.62,341.88,241.59,341.7z"/>
		<path class="st4" d="M244.22,341.81l0.22-3.99c0.01-0.19,0.13-0.3,0.32-0.29l2.48,0.14c0.14,0.01,0.26,0.13,0.25,0.27
			c-0.01,0.14-0.14,0.25-0.28,0.24l-2.21-0.12l-0.08,1.48l2.16,0.12c0.14,0.01,0.26,0.13,0.25,0.27c-0.01,0.14-0.14,0.25-0.28,0.24
			l-2.16-0.12l-0.09,1.58l2.21,0.12c0.14,0.01,0.26,0.13,0.25,0.27c-0.01,0.14-0.14,0.25-0.28,0.24l-2.48-0.14
			C244.31,342.12,244.21,342,244.22,341.81z"/>
		<path class="st4" d="M247.95,341.63c0.01-0.16,0.14-0.27,0.29-0.27c0.06,0,0.13,0.03,0.17,0.07c0.29,0.29,0.7,0.52,1.23,0.55
			c0.82,0.05,1.1-0.38,1.12-0.73c0.03-0.55-0.52-0.73-1.11-0.93c-0.72-0.23-1.53-0.48-1.48-1.38c0.04-0.76,0.74-1.24,1.69-1.19
			c0.58,0.03,1.01,0.22,1.39,0.55c0.07,0.05,0.11,0.14,0.1,0.23c-0.01,0.15-0.14,0.27-0.28,0.26c-0.07,0-0.12-0.03-0.16-0.07
			c-0.31-0.29-0.71-0.44-1.12-0.46c-0.59-0.03-1,0.24-1.02,0.67c-0.03,0.46,0.5,0.63,1.07,0.82c0.74,0.24,1.58,0.52,1.53,1.49
			c-0.04,0.67-0.53,1.32-1.77,1.25c-0.68-0.04-1.19-0.29-1.55-0.64C247.98,341.79,247.94,341.71,247.95,341.63z"/>
		<path class="st4" d="M253.24,342.36l0.21-3.83l-1.23-0.07c-0.14-0.01-0.25-0.13-0.24-0.27c0.01-0.14,0.13-0.25,0.27-0.24
			l3.03,0.17c0.14,0.01,0.25,0.13,0.24,0.27c-0.01,0.14-0.13,0.25-0.27,0.24l-1.23-0.07l-0.21,3.83c-0.01,0.15-0.14,0.27-0.3,0.27
			S253.23,342.51,253.24,342.36z"/>
		<path class="st4" d="M258.93,342.67l0.21-3.83l-1.23-0.07c-0.14-0.01-0.25-0.13-0.24-0.27c0.01-0.14,0.13-0.25,0.27-0.24
			l3.03,0.17c0.14,0.01,0.25,0.13,0.24,0.27c-0.01,0.14-0.13,0.25-0.27,0.24l-1.23-0.07l-0.21,3.83c-0.01,0.15-0.14,0.27-0.3,0.27
			C259.04,342.96,258.92,342.82,258.93,342.67z"/>
		<path class="st4" d="M261.71,342.78l0.22-3.99c0.01-0.19,0.13-0.3,0.32-0.29l2.48,0.14c0.14,0.01,0.26,0.13,0.25,0.27
			c-0.01,0.14-0.14,0.25-0.28,0.24l-2.21-0.12l-0.08,1.48l2.16,0.12c0.14,0.01,0.26,0.13,0.25,0.27c-0.01,0.14-0.14,0.25-0.28,0.24
			l-2.16-0.12l-0.09,1.58l2.21,0.12c0.14,0.01,0.26,0.13,0.25,0.27c-0.01,0.14-0.14,0.25-0.28,0.24l-2.48-0.14
			C261.8,343.08,261.7,342.97,261.71,342.78z"/>
		<path class="st4" d="M269.54,343.26l0.2-3.56l-1.73,3.65c-0.03,0.07-0.09,0.11-0.16,0.11c-0.07,0-0.13-0.05-0.15-0.12l-1.31-3.81
			l-0.2,3.56c-0.01,0.15-0.15,0.27-0.3,0.27c-0.17-0.01-0.28-0.15-0.27-0.3l0.21-3.88c0.01-0.26,0.24-0.47,0.51-0.45
			c0.21,0.01,0.37,0.14,0.43,0.33l1.14,3.31l1.5-3.17c0.08-0.18,0.26-0.29,0.46-0.28c0.27,0.01,0.47,0.25,0.45,0.51l-0.21,3.88
			c-0.01,0.15-0.14,0.27-0.3,0.27C269.65,343.54,269.53,343.41,269.54,343.26z"/>
		<path class="st4" d="M271.17,343.35l0.22-4.03c0.01-0.19,0.13-0.3,0.32-0.29l1.54,0.09c0.92,0.05,1.4,0.71,1.36,1.46
			c-0.04,0.75-0.61,1.35-1.51,1.3l-1.27-0.07l-0.09,1.57c-0.01,0.15-0.15,0.27-0.3,0.27C271.28,343.63,271.16,343.5,271.17,343.35z
			 M273.16,339.62l-1.2-0.07l-0.1,1.75l1.2,0.07c0.54,0.03,0.94-0.31,0.96-0.82C274.06,340.03,273.7,339.65,273.16,339.62z"/>
		<path class="st4" d="M275.21,343.52l0.22-4.03c0.01-0.15,0.14-0.27,0.3-0.27c0.15,0.01,0.28,0.15,0.27,0.3l-0.21,3.83l1.9,0.11
			c0.14,0.01,0.26,0.13,0.25,0.27c-0.01,0.14-0.14,0.25-0.28,0.24l-2.17-0.12C275.3,343.83,275.19,343.71,275.21,343.52z"/>
		<path class="st4" d="M278.71,343.71l0.22-3.99c0.01-0.19,0.13-0.3,0.32-0.29l2.48,0.14c0.14,0.01,0.26,0.13,0.25,0.27
			c-0.01,0.14-0.14,0.25-0.28,0.24l-2.21-0.12l-0.08,1.48l2.16,0.12c0.14,0.01,0.26,0.13,0.25,0.27c-0.01,0.14-0.14,0.25-0.28,0.24
			l-2.16-0.12l-0.09,1.58l2.21,0.12c0.14,0.01,0.26,0.13,0.25,0.27c-0.01,0.14-0.14,0.25-0.28,0.24l-2.48-0.14
			C278.8,344.02,278.7,343.91,278.71,343.71z"/>
		<path class="st4" d="M336.61,323.98c-0.13-0.09-0.17-0.26-0.08-0.39c0.04-0.05,0.09-0.1,0.15-0.11c0.4-0.11,0.81-0.34,1.1-0.78
			c0.46-0.68,0.24-1.14-0.05-1.34c-0.46-0.31-0.89,0.07-1.37,0.48c-0.57,0.5-1.2,1.07-1.95,0.56c-0.63-0.42-0.68-1.27-0.15-2.06
			c0.32-0.48,0.71-0.75,1.19-0.91c0.08-0.04,0.17-0.02,0.25,0.03c0.12,0.08,0.16,0.26,0.08,0.38c-0.04,0.06-0.09,0.09-0.14,0.1
			c-0.41,0.12-0.74,0.39-0.97,0.73c-0.33,0.49-0.31,0.98,0.05,1.22c0.38,0.26,0.79-0.1,1.25-0.5c0.58-0.51,1.26-1.09,2.06-0.55
			c0.55,0.37,0.87,1.13,0.17,2.16c-0.38,0.56-0.86,0.88-1.35,1C336.77,324.04,336.68,324.03,336.61,323.98z"/>
		<path class="st4" d="M338.53,318.26c-1.17-0.79-1.39-2.19-0.66-3.27c0.38-0.56,0.89-0.85,1.44-0.93c0.07-0.01,0.14,0.01,0.19,0.05
			c0.12,0.08,0.15,0.25,0.07,0.37c-0.05,0.07-0.12,0.11-0.19,0.12c-0.43,0.06-0.83,0.29-1.09,0.68c-0.55,0.82-0.34,1.88,0.57,2.5
			c0.9,0.61,1.98,0.41,2.53-0.41c0.26-0.39,0.33-0.85,0.22-1.26c-0.02-0.07-0.01-0.15,0.04-0.22c0.08-0.12,0.25-0.16,0.37-0.07
			c0.06,0.04,0.1,0.09,0.12,0.16c0.12,0.56,0.06,1.11-0.33,1.68C341.09,318.73,339.71,319.05,338.53,318.26z"/>
		<path class="st4" d="M345.01,312.28c0.14,0.09,0.17,0.27,0.08,0.4c-0.07,0.1-0.19,0.15-0.31,0.12l-0.9-0.21l-1.32,1.96l0.53,0.75
			c0.07,0.09,0.07,0.22,0,0.33c-0.09,0.14-0.27,0.17-0.4,0.08c-0.03-0.02-0.06-0.05-0.08-0.09l-2.37-3.51
			c-0.11-0.17-0.12-0.39,0-0.57c0.12-0.18,0.33-0.25,0.52-0.21l4.15,0.88C344.94,312.25,344.98,312.26,345.01,312.28z
			 M343.36,312.48l-2.67-0.61l1.57,2.25L343.36,312.48z"/>
		<path class="st4" d="M347.62,308.43l-2.96-2l2.24,3.35c0.05,0.06,0.05,0.13,0.01,0.2c-0.04,0.06-0.11,0.09-0.19,0.07l-3.94-0.83
			l2.96,2c0.13,0.09,0.16,0.27,0.07,0.39c-0.09,0.14-0.27,0.17-0.4,0.08l-3.22-2.17c-0.22-0.15-0.28-0.45-0.13-0.67
			c0.12-0.17,0.31-0.24,0.5-0.2l3.43,0.72l-1.95-2.91c-0.11-0.16-0.12-0.37,0-0.54c0.15-0.22,0.45-0.28,0.67-0.13l3.22,2.17
			c0.13,0.09,0.17,0.26,0.07,0.4C347.93,308.48,347.75,308.52,347.62,308.43z"/>
		<path class="st4" d="M348.54,307.08l-3.35-2.26c-0.16-0.11-0.19-0.26-0.08-0.42l0.86-1.28c0.52-0.77,1.33-0.84,1.95-0.42
			c0.62,0.42,0.85,1.21,0.34,1.97l-0.71,1.06l1.3,0.88c0.13,0.09,0.16,0.27,0.07,0.39C348.84,307.13,348.66,307.16,348.54,307.08z
			 M346.36,303.46l-0.67,1l1.45,0.98l0.67-1c0.3-0.45,0.21-0.96-0.21-1.25C347.17,302.9,346.66,303.01,346.36,303.46z"/>
		<path class="st4" d="M347.41,301.45c-0.13-0.09-0.17-0.26-0.07-0.4c0.09-0.13,0.27-0.16,0.39-0.08l2.11,1.42
			c0.7,0.47,1.39,0.39,1.86-0.31c0.47-0.7,0.29-1.38-0.41-1.85l-2.11-1.42c-0.13-0.09-0.16-0.26-0.07-0.4
			c0.09-0.13,0.27-0.16,0.39-0.08l2.11,1.43c0.95,0.64,1.2,1.57,0.5,2.6c-0.7,1.03-1.66,1.14-2.6,0.51L347.41,301.45z"/>
		<path class="st4" d="M353.02,299.66c-0.13-0.09-0.17-0.26-0.08-0.39c0.04-0.05,0.09-0.1,0.15-0.11c0.4-0.11,0.81-0.34,1.1-0.78
			c0.46-0.68,0.24-1.14-0.05-1.34c-0.46-0.31-0.89,0.07-1.37,0.48c-0.57,0.5-1.2,1.07-1.95,0.56c-0.63-0.42-0.68-1.27-0.15-2.06
			c0.32-0.48,0.71-0.75,1.19-0.91c0.08-0.04,0.17-0.02,0.25,0.03c0.12,0.08,0.16,0.26,0.08,0.38c-0.04,0.06-0.09,0.09-0.14,0.1
			c-0.41,0.12-0.74,0.39-0.97,0.72c-0.33,0.49-0.31,0.98,0.05,1.23c0.38,0.26,0.79-0.1,1.25-0.5c0.59-0.51,1.26-1.09,2.06-0.55
			c0.55,0.37,0.87,1.13,0.17,2.16c-0.38,0.56-0.86,0.88-1.35,1C353.17,299.72,353.08,299.71,353.02,299.66z"/>
		<path class="st4" d="M356.69,294.9l-3.31-2.23c-0.16-0.11-0.19-0.26-0.08-0.42l0.71-1.05c0.8-1.18,2.15-1.4,3.23-0.67
			c1.09,0.73,1.38,2.06,0.58,3.24l-0.71,1.05C357.01,294.98,356.85,295.01,356.69,294.9z M357.4,293.48
			c0.62-0.93,0.32-1.91-0.49-2.46c-0.82-0.55-1.84-0.48-2.47,0.46l-0.56,0.83l2.96,2L357.4,293.48z"/>
		<path class="st4" d="M361.29,288.21c0.1,0.07,0.15,0.24,0.06,0.38c-0.05,0.08-0.14,0.13-0.23,0.13l-2.11,0.02l-0.57,0.84l1.3,0.88
			c0.13,0.09,0.16,0.27,0.07,0.39c-0.09,0.14-0.27,0.17-0.4,0.08l-3.35-2.26c-0.16-0.11-0.19-0.26-0.08-0.42l0.86-1.28
			c0.47-0.7,1.25-0.89,1.95-0.42c0.65,0.44,0.74,1.11,0.48,1.65l1.81-0.05C361.16,288.16,361.22,288.16,361.29,288.21z
			 M358.03,289.3l0.67-1c0.3-0.45,0.21-0.97-0.22-1.25c-0.43-0.29-0.93-0.18-1.24,0.27l-0.67,1L358.03,289.3z"/>
		<path class="st4" d="M361.77,287.47l-3.39-2.29c-0.13-0.09-0.16-0.26-0.07-0.4c0.09-0.13,0.27-0.16,0.39-0.08l3.39,2.29
			c0.13,0.09,0.16,0.27,0.07,0.39C362.07,287.52,361.89,287.55,361.77,287.47z"/>
		<path class="st4" d="M363.36,285.04l-4.14-0.89c-0.04,0-0.07-0.02-0.11-0.04c-0.14-0.09-0.18-0.28-0.08-0.42
			c0.07-0.1,0.2-0.16,0.32-0.13l3.99,0.89l-2.32-3.36c-0.08-0.1-0.08-0.23,0-0.34c0.09-0.14,0.28-0.17,0.42-0.08
			c0.03,0.02,0.06,0.05,0.08,0.08l2.37,3.5c0.11,0.17,0.12,0.39,0,0.56C363.77,285.01,363.55,285.09,363.36,285.04z"/>
		<path class="st4" d="M365.18,282.33l-3.31-2.23c-0.16-0.11-0.19-0.26-0.08-0.42l1.39-2.06c0.08-0.11,0.24-0.15,0.36-0.07
			c0.11,0.08,0.14,0.25,0.07,0.36l-1.24,1.83l1.23,0.83l1.21-1.79c0.08-0.12,0.24-0.15,0.36-0.07c0.12,0.08,0.14,0.24,0.07,0.36
			l-1.21,1.79l1.31,0.89l1.24-1.83c0.08-0.11,0.24-0.15,0.36-0.07c0.12,0.08,0.14,0.25,0.07,0.36l-1.39,2.06
			C365.49,282.41,365.34,282.43,365.18,282.33z"/>
		<path class="st4" d="M426.52,335.21l-4.19-0.6c-0.04,0-0.07-0.01-0.11-0.03c-0.14-0.08-0.2-0.27-0.11-0.41
			c0.06-0.11,0.18-0.17,0.31-0.15l4.04,0.61l-2.55-3.19c-0.08-0.09-0.09-0.23-0.03-0.34c0.08-0.14,0.27-0.19,0.41-0.11
			c0.03,0.02,0.06,0.05,0.08,0.08l2.61,3.33c0.12,0.16,0.15,0.38,0.04,0.56C426.93,335.15,426.72,335.24,426.52,335.21z"/>
		<path class="st4" d="M429.89,329.42c0.14,0.08,0.19,0.26,0.11,0.4c-0.06,0.11-0.18,0.17-0.3,0.15l-0.91-0.14l-1.18,2.05l0.58,0.72
			c0.08,0.09,0.09,0.22,0.03,0.33c-0.08,0.14-0.26,0.19-0.4,0.11c-0.03-0.02-0.06-0.05-0.09-0.08l-2.61-3.34
			c-0.12-0.16-0.15-0.38-0.04-0.57c0.11-0.18,0.31-0.27,0.5-0.24l4.2,0.59C429.82,329.39,429.86,329.4,429.89,329.42z
			 M428.26,329.73l-2.71-0.43l1.72,2.13L428.26,329.73z"/>
		<path class="st4" d="M430.22,328.78l-3.5-2.02c-0.13-0.08-0.18-0.25-0.1-0.39c0.08-0.13,0.25-0.18,0.39-0.11l3.32,1.92l0.95-1.65
			c0.07-0.12,0.23-0.17,0.35-0.1c0.12,0.07,0.16,0.23,0.09,0.35l-1.09,1.88C430.54,328.83,430.39,328.87,430.22,328.78z"/>
		<path class="st4" d="M431.98,325.74l-3.5-2.02c-0.13-0.08-0.18-0.25-0.1-0.39c0.08-0.13,0.25-0.18,0.39-0.11l3.32,1.92l0.95-1.65
			c0.07-0.12,0.23-0.17,0.35-0.1c0.12,0.07,0.16,0.23,0.09,0.35l-1.09,1.88C432.29,325.8,432.14,325.84,431.98,325.74z"/>
		<path class="st4" d="M433.73,322.7l-3.46-2c-0.17-0.1-0.21-0.25-0.11-0.41l1.24-2.15c0.07-0.12,0.23-0.17,0.35-0.1
			c0.12,0.07,0.16,0.24,0.09,0.35l-1.11,1.92l1.28,0.74l1.08-1.87c0.07-0.12,0.23-0.17,0.35-0.1c0.12,0.07,0.16,0.23,0.09,0.35
			l-1.08,1.87l1.37,0.79l1.11-1.92c0.07-0.12,0.23-0.17,0.35-0.1c0.12,0.07,0.16,0.24,0.09,0.35l-1.24,2.15
			C434.05,322.76,433.9,322.8,433.73,322.7z"/>
		<path class="st4" d="M434.04,314.38l1.18,2.46l1.46,0.84c0.13,0.08,0.18,0.26,0.1,0.39c-0.08,0.14-0.25,0.18-0.39,0.1l-1.46-0.84
			l-2.72,0.21c-0.05,0.01-0.12-0.01-0.16-0.04c-0.13-0.08-0.18-0.25-0.1-0.38c0.05-0.08,0.13-0.14,0.22-0.14l2.45-0.16l-1.09-2.2
			c-0.04-0.08-0.04-0.18,0.01-0.27c0.08-0.13,0.25-0.18,0.38-0.11C433.98,314.29,434.02,314.34,434.04,314.38z"/>
		<path class="st4" d="M438.73,314.05l-3.46-2c-0.17-0.1-0.21-0.25-0.11-0.41l0.87-1.51c0.4-0.69,1.06-0.88,1.66-0.53
			c0.5,0.29,0.64,0.82,0.51,1.23c0.31-0.38,0.95-0.49,1.43-0.21c0.64,0.37,0.83,1.05,0.41,1.77l-0.9,1.55
			C439.05,314.1,438.9,314.14,438.73,314.05z M437.71,311.2c0.26-0.45,0.12-0.84-0.24-1.05c-0.36-0.21-0.78-0.13-1.04,0.31
			l-0.69,1.19l1.28,0.74L437.71,311.2z M439.54,312.23c0.27-0.47,0.16-0.89-0.26-1.14c-0.36-0.21-0.83-0.15-1.11,0.34l-0.7,1.22
			l1.37,0.79L439.54,312.23z"/>
		<path class="st4" d="M440.9,310.3l-3.5-2.02c-0.13-0.08-0.18-0.25-0.1-0.39c0.08-0.13,0.25-0.18,0.39-0.11l3.32,1.92l0.95-1.65
			c0.07-0.12,0.23-0.17,0.35-0.1c0.12,0.07,0.16,0.23,0.09,0.35l-1.09,1.88C441.21,310.36,441.06,310.4,440.9,310.3z"/>
		<path class="st4" d="M442.98,306.71l-4.19-0.6c-0.04,0-0.07-0.01-0.11-0.03c-0.14-0.08-0.2-0.27-0.11-0.41
			c0.06-0.11,0.18-0.17,0.31-0.15l4.04,0.61l-2.55-3.19c-0.08-0.09-0.09-0.23-0.03-0.34c0.08-0.14,0.27-0.19,0.41-0.11
			c0.03,0.02,0.06,0.05,0.08,0.08l2.61,3.33c0.12,0.16,0.15,0.38,0.04,0.56C443.38,306.65,443.18,306.74,442.98,306.71z"/>
		<rect x="95.14" y="217.75" class="st2" width="42.16" height="27.51"/>
		<text transform="matrix(1 0 0 1 95.1427 223.498)"><tspan x="0" y="0" class="st7 st8 st10">Kellogg</tspan><tspan x="0" y="9.6" class="st7 st8 st10">Gallery</tspan><tspan x="0" y="19.2" class="st7 st8 st10">Bldg. 35A</tspan></text>
		<rect x="194.28" y="239.27" class="st2" width="34.78" height="27.01"/>
		<text transform="matrix(1 0 0 1 194.2804 245.0254)"><tspan x="0" y="0" class="st7 st8 st10">Bronco </tspan><tspan x="0" y="6.88" class="st7 st8 st10">Student</tspan><tspan x="0" y="13.76" class="st7 st8 st10">Center</tspan></text>
	</g>
</g>
</svg>
