<?xml version="1.0" encoding="utf-8"?>
<!-- Generator: Adobe Illustrator 23.0.2, SVG Export Plug-In . SVG Version: 6.00 Build 0)  -->
<svg version="1.1" xmlns="http://www.w3.org/2000/svg" xmlns:xlink="http://www.w3.org/1999/xlink" x="0px" y="0px"
	 viewBox="0 0 180 145.3" style="enable-background:new 0 0 180 145.3;" xml:space="preserve">
<style type="text/css">
	.st0{fill:none;stroke:#BCBEC0;stroke-width:2;stroke-miterlimit:10;}
	.st1{fill:none;stroke:#BCBEC0;stroke-width:2.2106;stroke-miterlimit:10;}
	.st2{fill:none;stroke:#BCBEC0;stroke-width:0.75;stroke-miterlimit:10;}
	.st3{fill:none;stroke:#BCBEC0;stroke-miterlimit:10;}
	.st4{fill:none;stroke:#BCBEC0;stroke-width:4.4212;stroke-miterlimit:10;}
	.st5{fill:none;stroke:#BCBEC0;stroke-width:3.0396;stroke-miterlimit:10;}
	.st6{fill:none;stroke:#BCBEC0;stroke-width:1.658;stroke-miterlimit:10;}
	.st7{opacity:0.76;}
	.st8{fill:#231F20;}
	.st9{fill:#CBCBCB;}
	.st10{fill:none;}
	.st11{fill:#010101;}
	.st12{font-family:'UniversLTStd-Cn';}
	.st13{font-size:5.1488px;}
	.st14{letter-spacing:7;}
	.st15{opacity:0.5;}
	.st16{fill:#808285;}
	.st17{fill:#DD5958;}
	.st18{fill:#A7A9AC;}
	.st19{fill:#C0C0BF;}
	.st20{fill:none;stroke:#FFFFFF;stroke-width:0.2763;stroke-miterlimit:10;}
	.st21{fill:none;stroke:#231F20;stroke-width:0.2763;stroke-miterlimit:10;stroke-dasharray:1.1053,0.5527;}
	.st22{fill:none;stroke:#BE1E2D;stroke-width:0.376;stroke-miterlimit:10;stroke-dasharray:1.105,0.5527;}
	.st23{fill:#BE1E2D;}
	.st24{fill:#8AC7E0;}
	.st25{fill:#939598;}
	.st26{font-family:'AcuminPro-Regular';}
	.st27{font-size:2.1679px;}
	.st28{font-size:1.4792px;}
	.st29{font-size:2.4389px;}
	.st30{font-size:2.439px;}
	.st31{font-size:2.2346px;}
	.st32{font-size:2.2345px;}
	.st33{fill:#3094BD;}
	.st34{fill:#251F21;}
	.st35{fill:#FFFFFF;}
	.st36{opacity:0.6;}
	.st37{fill:#CC2F2A;}
	.st38{fill:none;stroke:#251F21;stroke-width:4.144911e-02;stroke-miterlimit:10;}
	.st39{fill:none;stroke:#251F21;stroke-width:6.908185e-02;stroke-miterlimit:10;}
	.st40{font-size:2px;}
	.st41{opacity:0.75;}
	.st42{fill:#131213;}
	.st43{font-size:2.0907px;}
	.st44{font-size:2.3484px;}
	.st45{font-family:'AzoSans-Regular';}
	.st46{font-size:1.6943px;}
	.st47{font-size:2.3721px;}
	.st48{opacity:0.89;fill:#131213;}
	.st49{font-family:'Arial-Black';}
	.st50{font-size:3.2096px;}
	.st51{font-family:'AzoSans-Black';}
	.st52{font-size:3.148px;}
	.st53{fill:#FFFFFF;stroke:#CCC8C8;stroke-width:0.3979;stroke-miterlimit:10;}
	.st54{font-size:2.3699px;}
	.st55{font-size:2.6566px;}
	.st56{font-family:'AzoSans-Bold';}
	.st57{font-size:7px;}
	.st58{font-size:3.1044px;}
</style>
<g id="Roads">
	<g>
		<g>
			<g>
				<polyline class="st0" points="42.4,100.8 55.4,92.9 64.8,87.3 				"/>
				<path class="st0" d="M53.8,105.5l1.5-1.4c0,0,10.3-4.5,12.9-1.9c2.2,2.2,10.4,2,10.4,2"/>
				<path class="st1" d="M107.5,48.3c-0.3-0.3-0.5-0.6-0.8-1c-0.1-0.1-0.1-0.2-0.2-0.2c-0.1-0.1-0.3-0.1-0.4-0.2
					c-0.7-0.3-1.3-0.5-2-0.8c-0.7-0.2-1.3-0.5-2-0.8c-1-0.5-1.9-1.6-2.6-2.4"/>
				<polygon class="st2" points="98.3,43.5 100.7,41.8 101.2,41.7 108.9,34.6 107.6,33.4 101.1,38.7 96.4,42.4 86.4,45.1 86.6,46.6 
					91.1,45.9 93.2,45.2 95,44.6 				"/>
				<path class="st3" d="M82.5,67.9c-0.4-0.2-5.5-2.3-5.5-2.3l-5.1-0.7l-4.7-0.3"/>
				<path class="st4" d="M171.3,123.7c0,0-72.7-5.6-76.6-5.8c-3.8-0.2-77-3.1-77-3.1"/>
				<path class="st4" d="M114.1,119.3L141.6,80c3.1-4.9,14.8-22.4,24.9-26.1"/>
				<path class="st4" d="M147.9,121.1c3.9-6.2,13.9-27.3,23.5-27.9"/>
				<path class="st5" d="M139.2,11.1l-0.1,10.5l-16,13.6c-3.6,3.2-7.3,6.4-10.9,9.7c-2.6,2.3-5.3,4.5-7.7,7.1
					c-2.6,2.8-4.9,5.9-7.4,8.7c-2.2,2.4-5.6,3.2-8.6,3.8c-1.4,0.3-3.1,0.2-3.7,1.2c-1,1.5-1.6,4.2-1.9,5.9c-0.7,4.8,1.3,11.6,5,14.9
					c2.7,2.4,6.9,3.9,10.2,5.6c3,1.6,6,3.1,9,4.7c3.7,1.9,7.5,3.9,11.2,5.8l15.3,9.8l12.3,2.1l6.4,3.7"/>
				<line class="st4" x1="150.1" y1="4.7" x2="164.3" y2="134.5"/>
				<polyline class="st6" points="67.4,63.5 65.7,66.2 61,68.8 58.7,69.1 55.2,67.5 				"/>
				<path class="st5" d="M62.5,116.9c-0.9-2.5-1.5-5.2-3.2-7.3c-0.8-1-1.8-1.8-2.9-2.4c-0.8-0.4-1.7-0.7-2.6-0.9
					c-2-0.5-4.1-0.5-6.1-0.8c-2-0.4-3.6-0.8-4.9-2.4c-1.3-1.7-2-3.7-2.7-5.6c-0.4-1.1-0.8-2.3-1.5-3.3c-1.2-1.7-1.9-2.8-3.5-2.9
					c-2.2-0.1-4.1,0.2-5.4-1.6c-0.8-1.1-1.4-2.4-2.4-3.4c-1.2-1.3-10.2-17.8-9.5-23.5c0.1-1.1,0.3-2.2,0.8-3.2c1.4-2.7,4.4-3.7,7-5
					c3.1-1.5,6.2-3,9.3-4.5c6.2-3,12.5-6,18.7-9c0.1,0,0.1-0.1,0.2-0.1c0.6-0.3,1.3-0.6,1.8-1.1c0.3-0.3,0.6-0.7,0.9-1.1
					c1.7-2.4,3.5-4.7,5.2-7.1c0.9-1.2,1.8-2.4,2.7-3.6c0.7-0.9,1.1-1.9,2.1-2.5c0.9-0.6,2-0.9,3.1-1.2c1.8-0.5,3.3-0.7,5.2-0.4
					c1.9,0.4,3.7,1,5.6,1.3c3,0.5,6.1,0.1,9-0.9c2-0.7,3.6-2.1,4.9-3.7c1.2-1.6,1.6-3.8,3.9-4.2c1-0.2,1.9,0,2.9,0.2
					c8.2,2,14.7,7.8,21.4,12.6l1.6,1.5l1.1,1.4"/>
				<line class="st4" x1="57.7" y1="11.1" x2="169.1" y2="11.1"/>
			</g>
			<circle class="st3" cx="137" cy="113.2" r="3"/>
			<path class="st4" d="M140.4,112.3"/>
		</g>
		<rect x="78.7" y="103.1" class="st3" width="16.9" height="2.2"/>
	</g>
	<g>
		<g class="st7">
			<path class="st8" d="M154.5,86.3l3.6,1.7c0.6,0.3,1.3,0.3,1.8,0l3.6-1.7c0.4-0.2,0.6-0.6,0.6-1V79c0-0.6-0.5-1.1-1.1-1.1H155
				c-0.6,0-1.1,0.5-1.1,1.1v6.2C153.8,85.7,154.1,86.1,154.5,86.3z"/>
		</g>
		<g>
			<path class="st9" d="M154.1,85.7l3.6,1.7c0.6,0.3,1.3,0.3,1.8,0l3.6-1.7c0.4-0.2,0.6-0.6,0.6-1v-6.2c0-0.6-0.5-1.1-1.1-1.1h-8.2
				c-0.6,0-1.1,0.5-1.1,1.1v6.2C153.5,85.1,153.7,85.5,154.1,85.7z"/>
		</g>
	</g>
	<g>
		<rect x="156.4" y="80.1" class="st10" width="5.4" height="4.4"/>
		<text transform="matrix(1 0 0 1 156.3769 83.7567)"><tspan x="0" y="0" class="st11 st12 st13">57</tspan><tspan x="5.3" y="0" class="st11 st12 st13 st14">	</tspan></text>
	</g>
	<g>
		<g class="st7">
			<path class="st8" d="M115.7,15.4l3.6,1.7c0.6,0.3,1.3,0.3,1.8,0l3.6-1.7c0.4-0.2,0.6-0.6,0.6-1V8.2c0-0.6-0.5-1.1-1.1-1.1h-8.2
				c-0.6,0-1.1,0.5-1.1,1.1v6.2C115,14.8,115.3,15.2,115.7,15.4z"/>
		</g>
		<g>
			<path class="st9" d="M115.3,14.8l3.6,1.7c0.6,0.3,1.3,0.3,1.8,0l3.6-1.7c0.4-0.2,0.6-0.6,0.6-1V7.6c0-0.6-0.5-1.1-1.1-1.1h-8.2
				c-0.6,0-1.1,0.5-1.1,1.1v6.2C114.6,14.2,114.9,14.6,115.3,14.8z"/>
		</g>
	</g>
	<g>
		<rect x="117.6" y="9.3" class="st10" width="5.4" height="4.4"/>
		<text transform="matrix(1 0 0 1 117.5683 12.9076)"><tspan x="0" y="0" class="st11 st12 st13">10</tspan><tspan x="5.3" y="0" class="st11 st12 st13 st14">	</tspan></text>
	</g>
</g>
<g id="Buildings">
	<g>
		<g class="st15">
			<rect x="60.4" y="73.8" transform="matrix(0.866 -0.5 0.5 0.866 -31.4023 42.2647)" class="st8" width="5.5" height="11.8"/>
		</g>
		<g>
			<rect x="60.2" y="73.6" transform="matrix(0.866 -0.5 0.5 0.866 -31.3295 42.1386)" class="st16" width="5.5" height="11.8"/>
		</g>
	</g>
	<rect x="56.3" y="71" transform="matrix(0.866 -0.5 0.5 0.866 -28.4852 39.2943)" class="st17" width="5.5" height="3.6"/>
	<g>
		<rect x="50.3" y="75.2" transform="matrix(0.866 -0.5 0.5 0.866 -32.5448 37.0448)" class="st16" width="5.1" height="8.1"/>
	</g>
	<g>
		<rect x="53.9" y="95.6" transform="matrix(0.866 -0.5 0.5 0.866 -41.1697 41.7197)" class="st16" width="6.7" height="4.2"/>
	</g>
	<g>
		<rect x="65.3" y="88" transform="matrix(0.866 -0.5 0.5 0.866 -36.1927 47.4835)" class="st16" width="10.4" height="6.5"/>
	</g>
	<g>
		<polygon class="st16" points="64.4,60.9 60.1,58.9 59.1,56.9 52.3,60.3 55.2,66 57.8,64.7 58.5,66.3 59.8,67.2 60.6,65.7 
			65.7,63.2 		"/>
	</g>
	<g>
		<polygon class="st16" points="67.6,70.1 70,74 71.9,72.8 71.4,71.8 74.9,69.2 73.1,66.5 		"/>
	</g>
	<g>
		<polygon class="st16" points="67.7,106.8 67.6,113.5 71,113.7 76.1,113.8 77.9,111.7 77.9,106.9 		"/>
	</g>
	<g>
		<path class="st16" d="M67.2,44.4c0.1,0.1,1.1,2,1.1,2l-0.2,0.1l2.1,5.1l4.2-6.1l-0.1-0.8l4.7-2.2l0.4-0.7l-1-1.6l1.2-1.4l2.1-1.3
			l-1-2.1l-2.5,1.1L78,35.8L76.8,36L71,38.4l-0.6,0.5l0.6,1.2l-0.7,0.3L70,39.2L67.2,44.4z"/>
	</g>
	<path class="st16" d="M72.9,52.9c0.6-0.3,1.2,0,1.9,0.2c0.4,0.1,1,0.4,1.4,0.9c0.3,0.4,0.3,0.5,0.5,0.8c0.7,0.9,2.1,0.1,3.4,0.6
		c0.6,0.2,1.3,1.3,2.6,3.4c1.4,2.3,1.4,2.8,1.4,3.1c-0.2,0.9-1,1.3-2.4,2.1c-1.2,0.7-2,1.1-2.8,0.9c-0.7-0.2-1-0.6-2-1.6
		c-1.3-1.1-2-0.9-2.5-1.7c-0.3-0.5-0.2-0.9-0.6-1.2c-0.4-0.2-0.8,0.2-1.6,0.2c-0.8,0-1.7-0.4-2-1c-0.3-0.7,0.7-1.2,1.5-3
		C72.5,54.5,72,53.3,72.9,52.9z"/>
	<path class="st16" d="M67.8,59.7c0,0,6.1-9.2,6.2-9.3s2.8-2,2.8-2l4.4,0.8l4.5,0.1l0.3,1.4l4.8,9.4l-7,2.1l-3.7,0.3l-2,2.4
		c0,0-7.8-1.2-8-1.4S67.8,59.7,67.8,59.7z"/>
	<path class="st18" d="M72.9,52.6c0.6-0.3,1.3,0,2.1,0.3c0.4,0.1,1,0.4,1.5,1c0.3,0.4,0.3,0.6,0.5,0.8c0.7,0.9,2.2,0.1,3.7,0.6
		c0.7,0.3,1.4,1.4,2.8,3.6c1.6,2.5,1.6,3,1.5,3.3c-0.2,0.9-1.1,1.4-2.6,2.3c-1.3,0.7-2.1,1.2-3.1,1c-0.8-0.2-1.1-0.7-2.2-1.7
		c-1.4-1.2-2.2-1-2.7-1.9c-0.3-0.6-0.2-1-0.6-1.2c-0.5-0.3-0.9,0.2-1.7,0.2c-0.8,0-1.9-0.4-2.1-1.1c-0.3-0.8,0.8-1.3,1.6-3.2
		C72.4,54.4,71.9,53.1,72.9,52.6z"/>
	<rect x="55.1" y="60.3" transform="matrix(0.8906 -0.4548 0.4548 0.8906 -21.9396 32.2956)" class="st16" width="2" height="2.8"/>
</g>
<g id="Voohris">
	<g>
		<polygon class="st19" points="84.7,39.6 82.6,39.5 81.5,40 78,44.9 77.4,46.1 77.8,47 79.7,47.8 82.1,48.1 85.3,47.8 		"/>
		<path class="st20" d="M81.3,40.4l1.2,1.7l0.3,1.5l-0.4,1.6L81.8,46c0,0-0.7,0.3-0.9,0.3S78,44.9,78,44.9"/>
		<polygon class="st20" points="80.5,42.5 79.9,43.2 80.2,43.9 80.8,44.4 81.5,44.1 81.8,43.4 81.5,42.5 		"/>
		<line class="st20" x1="80.2" y1="46.1" x2="80.2" y2="43.9"/>
		<line class="st20" x1="81.8" y1="43.4" x2="82.7" y2="43"/>
		<line class="st20" x1="79.9" y1="42.3" x2="80.3" y2="42.8"/>
	</g>
	<path class="st21" d="M56.1,70.2"/>
</g>
<g id="Pathway">
	<g>
		<g>
			<polyline class="st22" points="74.9,47.6 76.4,46.1 78.8,47.9 82.1,48.3 86.8,48.1 86.7,47.6 86.7,47.3 89.7,46.8 92.7,46.2 
				95,45.5 98.3,44.1 99.2,43.5 100.5,42.7 101.3,42.4 101.9,42 106.4,37.7 107.5,36.7 106.7,36 			"/>
			<g>
				<polygon class="st23" points="75.6,47.7 73.4,48.9 74.7,46.8 				"/>
			</g>
		</g>
	</g>
	<g>
		<g>
			<polyline class="st22" points="72.3,50.1 70.5,52.8 65.9,59.5 65.8,60.3 67.6,63.2 66.9,64.4 65.4,66.4 60.8,69 58.4,69.3 
				57.2,69.1 55.2,68.5 55.8,69.6 			"/>
			<g>
				<polygon class="st23" points="55,69.5 56.7,71.4 56.2,68.9 				"/>
			</g>
		</g>
	</g>
	<polyline class="st22" points="78,99.9 66.7,98.6 59.1,85.5 59.1,81.9 55.3,72.6 	"/>
</g>
<g id="Parking">
	<polygon class="st24" points="102,42.5 102.6,43.2 106,44.6 106.9,45.4 122.1,32 120.3,30.4 114.6,25.7 107.7,31.8 110.2,34.4 	"/>
	<polygon class="st24" points="86.8,47.5 87.2,50.2 92.9,59.7 95.6,57.8 98.5,54.8 103,49.4 104.2,48.2 103.5,47.5 100.2,46.2 
		98.4,44.4 92.5,46.7 	"/>
	<polygon class="st24" points="102.7,42.1 103.3,42.8 106.5,44 107.3,44.9 121.6,32.2 119.9,30.7 114.6,26.3 108,32.1 110.4,34.5 	
		"/>
	<path class="st24" d="M101.4,47.9c-0.3-0.1-2.1-1.5-3.1-1.6c-0.6-0.1-1.1,0.5-2.9,1.2C94,48,91.6,48.6,89.1,49c0,0-2.1-0.4-1,1.2
		l3.5,6.4c0.2,0.3,0.5,0.5,0.9,0.5c0.4,0,0.9-0.1,1.6-0.3c0.8-0.2,1.2-0.4,1.6-0.5c0.3-0.1,0.6-0.3,0.9-0.6c1.2-1.4,5.1-6.1,5.1-6.1
		C101.7,49.5,102.2,48.7,101.4,47.9"/>
	<path class="st24" d="M75.2,51.8c0,0.8,1.7,0.9,6.1,3.1c4.2,2.1,5.3,3.2,5.8,2.8c0.9-0.8-0.8-6.2-4.8-7.6
		C79.1,48.9,75.2,50.6,75.2,51.8z"/>
	<g>
		<path id="XMLID_543_" class="st25" d="M104,44.6l0.4,0.2c0,0,0.3-0.8,0.1-1.4c0,0,0.4-0.1,0.5,0.4c0,0,0.2-0.3-0.3-0.6
			c0,0,0.2-0.1,0.6,0.2c0,0-0.1-0.5-0.8-0.4c0,0-0.2-0.9-1-0.3c0,0,0.7-0.1,0.7,0.3c0,0-0.6-0.2-0.5,0.5c0,0,0.3-0.6,0.6-0.2
			C104.3,43.2,104.5,43.3,104,44.6"/>
		<path id="XMLID_542_" class="st25" d="M102.5,43.9l0.4,0.2c0,0,0.3-0.8,0.1-1.4c0,0,0.4-0.1,0.5,0.4c0,0,0.2-0.3-0.3-0.6
			c0,0,0.2-0.1,0.6,0.2c0,0-0.1-0.5-0.8-0.4c0,0-0.2-0.9-1-0.3c0,0,0.7-0.1,0.7,0.3c0,0-0.6-0.2-0.5,0.5c0,0,0.3-0.6,0.6-0.2
			C102.8,42.6,103,42.6,102.5,43.9"/>
		<path id="XMLID_519_" class="st25" d="M105.3,45l0.4,0.2c0,0,0.2-0.8,0.1-1.4c0,0,0.4-0.1,0.5,0.4c0,0,0.2-0.3-0.3-0.6
			c0,0,0.2-0.1,0.6,0.2c0,0-0.1-0.5-0.8-0.4c0,0-0.2-0.9-1.1-0.2c0,0,0.7-0.2,0.8,0.2c0,0-0.6-0.1-0.5,0.6c0,0,0.3-0.6,0.6-0.2
			C105.5,43.7,105.7,43.7,105.3,45"/>
		<path id="XMLID_518_" class="st25" d="M107,45.6l0.4,0.2c0,0,0.2-0.8,0.1-1.4c0,0,0.4-0.1,0.5,0.4c0,0,0.2-0.3-0.3-0.6
			c0,0,0.2-0.1,0.6,0.2c0,0-0.1-0.5-0.8-0.4c0,0-0.2-0.9-1.1-0.3c0,0,0.7-0.1,0.7,0.3c0,0-0.6-0.2-0.5,0.6c0,0,0.3-0.6,0.6-0.2
			C107.2,44.3,107.4,44.3,107,45.6"/>
	</g>
	<g>
		<g class="st15">
			<path class="st8" d="M85.3,37.8l1.2,6.4l9.7-2.6l4.1-3.1c0,0,7.1-5.6,7.1-5.8s-5.1-4-5.1-4l-4.7,5.5l-5.3,2.3L85.3,37.8z"/>
		</g>
		<g>
			<path class="st24" d="M85.1,37.6l1.2,6.4l9.7-2.6l4.1-3.1c0,0,7.1-5.6,7.1-5.8s-5.1-4-5.1-4L97.2,34l-5.3,2.3L85.1,37.6z"/>
		</g>
	</g>
	<g>
		<path class="st24" d="M107,36l-1,0.9c-0.1,0.1-0.3,0.1-0.4,0l-0.3-0.3c-0.1-0.1-0.1-0.3,0-0.4l1-0.9c0.1-0.1,0.3-0.1,0.4,0
			l0.3,0.3C107.1,35.7,107.1,35.9,107,36z"/>
		<path class="st24" d="M106.4,35.6l0.2-0.9c0.2-0.1,0.3-0.2,0.4-0.4c0.3-0.5,0.1-1.2-0.4-1.5c-0.5-0.3-1.2-0.1-1.5,0.4
			c-0.3,0.5-0.1,1.2,0.4,1.5c0.1,0.1,0.3,0.1,0.5,0.2L106.4,35.6z"/>
		<g>
			<path id="XMLID_514_" class="st24" d="M106.4,34.5c-0.1,0-0.2,0-0.2,0c-0.1,0-0.1-0.1-0.1-0.3c0-0.1,0-0.2,0-0.3
				c0-0.1,0-0.2-0.1-0.2c0,0-0.1,0-0.2,0.1c0,0,0,0,0,0c0,0,0,0,0,0c0,0,0.1-0.3,0.3-0.3c0.1,0,0.2,0,0.3,0.1
				c0.1,0.1,0.1,0.3,0.1,0.5c0,0.2,0,0.3,0.1,0.3c0,0,0.1,0,0.2,0c0,0,0,0,0,0c0,0,0,0,0,0C106.6,34.4,106.5,34.5,106.4,34.5"/>
			<path id="XMLID_513_" class="st24" d="M105.9,33.3c-0.1,0-0.2,0-0.3-0.1c0-0.1,0-0.2,0.2-0.2c0.1,0,0.2,0,0.3,0.1
				C106,33.1,106,33.2,105.9,33.3"/>
		</g>
	</g>
	<g>
		<g class="st15">
			<rect x="77.2" y="96.8" class="st8" width="18.6" height="5.5"/>
		</g>
		<g>
			<rect x="77" y="96.6" class="st24" width="18.6" height="5.5"/>
		</g>
	</g>
</g>
<g id="Label_2">
	<g>
		<path id="SVGID_x5F_1_x5F_" class="st10" d="M99.4,43.8l1.9,1.8l0.7,0.7l1.6,0.5"/>
		<text>		<textPath  xlink:href="#SVGID_x5F_1_x5F_" startOffset="1.823%">
<tspan  class="st8 st12" style="font-size:1.6097px;">palm</tspan>		</textPath>
</text>
	</g>
	<path id="SVGID_x5F_2_x5F_" class="st10" d="M94.9,44.4l2.8-1l4.8-3.2"/>
	<text>	<textPath  xlink:href="#SVGID_x5F_2_x5F_" startOffset="2.344%">
<tspan  class="st8 st26" style="font-size:1.6097px;">Oak lane</tspan>	</textPath>
</text>
	<text transform="matrix(0.5766 -0.817 0.817 0.5766 61.4185 60.6477)"><tspan x="0" y="0" class="st11 st26 st27">OLIVE LANE</tspan><tspan x="6.2" y="1.9" class="st11 st26 st27">WALK</tspan></text>
	<text transform="matrix(0.4797 0.8774 -0.8774 0.4797 86.2779 50.8582)" class="st11 st12 st28">RED GUM LANE</text>
	<g>
		<text transform="matrix(0.8861 0.4634 -0.4634 0.8861 103.3829 95.5543)" class="st11 st12 st29">kellogg drive</text>
	</g>
	<g>
		<text transform="matrix(0.8603 -0.5098 0.5098 0.8603 45.4796 99.668)" class="st11 st12 st30">Eucalyptus Ln.</text>
	</g>
	<g>
		<text transform="matrix(0.8999 -0.4361 0.4361 0.8999 38.5333 49.2098)" class="st11 st12 st29">S University drive</text>
	</g>
	<g>
		<text transform="matrix(0.804 0.5946 -0.5946 0.804 107.1216 19.3193)" class="st11 st12 st29">S University drive</text>
	</g>
	<g>
		<text transform="matrix(0.5708 -0.8211 0.8211 0.5708 128.2976 101.1617)" class="st11 st12 st30">s campus drive</text>
	</g>
	<g>
		<text transform="matrix(0.9972 7.457000e-02 -7.457000e-02 0.9972 78.0162 117.4343)" class="st11 st12 st30">w temple avenue</text>
	</g>
	<g>
		<text transform="matrix(0.9596 -0.2812 0.2812 0.9596 54.8272 105.0309)" class="st11 st12 st31">Collins st.</text>
	</g>
	<g>
		<text transform="matrix(0.7649 -0.6442 0.6442 0.7649 127.6993 32.0451)" class="st11 st12 st29">kellogg drive</text>
	</g>
	<g>
		<path id="SVGID_x5F_3_x5F_" class="st10" d="M103.2,46.8l2.6,0.6l0.3,0.5l0.7,0.5l0.8,0.8"/>
		<text>		<textPath  xlink:href="#SVGID_x5F_3_x5F_" startOffset="0.3907%">
<tspan  class="st8 st12" style="font-size:1.6097px;">Drive</tspan>		</textPath>
</text>
	</g>
	<g>
		<text transform="matrix(0.4364 0.8997 -0.8997 0.4364 17.5807 68.6875)" class="st11 st12 st30">S University drive</text>
	</g>
	<g>
		<text transform="matrix(0.9998 -2.033000e-02 2.033000e-02 0.9998 80.4689 105.0212)" class="st11 st12 st32">Collins st.</text>
	</g>
</g>
<g id="Label_1">
	<polygon class="st33" points="79.9,91 79.9,96.7 79.9,98.8 81.6,96.7 98.2,96.6 98.2,91 	"/>
	<g>
		<g>
			<rect x="60.5" y="39.5" class="st34" width="6.1" height="8.9"/>
			<polygon class="st34" points="66.6,48.4 70.5,48.4 66.6,46.5 			"/>
		</g>
		<g>
			<polygon class="st35" points="61.9,43.5 61.9,47.3 65.3,47.3 65.3,43.5 61.9,40.8 			"/>
			<polygon class="st34" points="62.3,41.5 64.9,43.7 62.3,43.7 			"/>
		</g>
	</g>
	<g>
		<g>
			<g>
				<g>
					<g class="st36">
						<rect x="32.5" y="73.1" class="st8" width="21.5" height="8.6"/>
					</g>
					<g>
						<rect x="32.1" y="72.5" class="st37" width="21.5" height="8.6"/>
					</g>
				</g>
				<g id="XMLID_18_">
					<g class="st36">
						<polygon class="st8" points="54,73.1 58.8,73.1 54,75.8 						"/>
					</g>
					<g>
						<polygon class="st37" points="53.6,72.5 58.4,72.5 53.6,75.2 						"/>
					</g>
				</g>
			</g>
		</g>
		<g>
			<rect x="33.3" y="75.5" class="st35" width="5.7" height="3.3"/>
			<path class="st34" d="M34.8,77.1v0.1c0,0,0.1,0,0.1,0.1c0,0.1-0.1,0.1-0.1,0.1l0.1,0.1l-0.1,0.1h0.1v0.2h-0.1l0.1,0.1l-0.1,0.1
				l0.1,0.1l-0.1,0.1l0.1,0.1l-0.1,0.1v0.1h-0.4v-1.7H34.8z"/>
			<path class="st34" d="M37.6,77.1v0.1c0,0-0.1,0-0.1,0.1c0,0.1,0.1,0.1,0.1,0.1l-0.1,0.1l0.1,0.1h-0.1v0.2h0.1l-0.1,0.1l0.1,0.1
				l-0.1,0.1l0.1,0.1l-0.1,0.1l0.1,0.1v0.1H38v-1.7H37.6z"/>
			<rect x="33.3" y="78.4" class="st34" width="1.1" height="0.4"/>
			<rect x="37.9" y="78.4" class="st34" width="1.2" height="0.4"/>
			<rect x="33.8" y="77.9" class="st38" width="0.5" height="0.5"/>
			<rect x="33.3" y="77.9" class="st38" width="0.5" height="0.5"/>
			<rect x="33.8" y="77.4" class="st38" width="0.5" height="0.5"/>
			<rect x="33.3" y="77.4" class="st38" width="0.5" height="0.5"/>
			<rect x="33.8" y="76.9" class="st38" width="0.5" height="0.5"/>
			<rect x="33.3" y="76.9" class="st38" width="0.5" height="0.5"/>
			<rect x="33.8" y="76.3" class="st38" width="0.5" height="0.5"/>
			<rect x="33.3" y="76.3" class="st38" width="0.5" height="0.5"/>
			<rect x="33.3" y="76.3" class="st38" width="0.3" height="0.5"/>
			<rect x="33.6" y="76.3" class="st38" width="0.3" height="0.5"/>
			<rect x="33.8" y="76.3" class="st38" width="0.3" height="0.5"/>
			<rect x="34.1" y="76.3" class="st38" width="0.3" height="0.5"/>
			<rect x="34.1" y="76.9" class="st38" width="0.3" height="0.5"/>
			<rect x="33.8" y="76.9" class="st38" width="0.3" height="0.5"/>
			<rect x="33.8" y="77.4" class="st38" width="0.3" height="0.5"/>
			<rect x="34.1" y="77.4" class="st38" width="0.3" height="0.5"/>
			<rect x="33.6" y="77.4" class="st38" width="0.3" height="0.5"/>
			<rect x="33.3" y="77.4" class="st38" width="0.3" height="0.5"/>
			<rect x="33.3" y="77.9" class="st38" width="0.3" height="0.5"/>
			<rect x="33.6" y="77.9" class="st38" width="0.3" height="0.5"/>
			<rect x="33.8" y="77.9" class="st38" width="0.3" height="0.5"/>
			<rect x="34.1" y="77.9" class="st38" width="0.3" height="0.5"/>
			<rect x="33.6" y="76.9" class="st38" width="0.3" height="0.5"/>
			<rect x="33.3" y="76.9" class="st38" width="0.3" height="0.5"/>
			<rect x="38.5" y="77.9" class="st38" width="0.5" height="0.5"/>
			<rect x="38" y="77.9" class="st38" width="0.5" height="0.5"/>
			<rect x="38.5" y="77.4" class="st38" width="0.5" height="0.5"/>
			<rect x="38" y="77.4" class="st38" width="0.5" height="0.5"/>
			<rect x="38.5" y="76.9" class="st38" width="0.5" height="0.5"/>
			<rect x="38" y="76.9" class="st38" width="0.5" height="0.5"/>
			<rect x="38.5" y="76.3" class="st38" width="0.5" height="0.5"/>
			<rect x="38" y="76.3" class="st38" width="0.5" height="0.5"/>
			<rect x="38" y="76.3" class="st38" width="0.3" height="0.5"/>
			<rect x="38.3" y="76.3" class="st38" width="0.3" height="0.5"/>
			<rect x="38.5" y="76.3" class="st38" width="0.3" height="0.5"/>
			<rect x="38.8" y="76.3" class="st38" width="0.3" height="0.5"/>
			<rect x="38.8" y="76.9" class="st38" width="0.3" height="0.5"/>
			<rect x="38.5" y="76.9" class="st38" width="0.3" height="0.5"/>
			<rect x="38.5" y="77.4" class="st38" width="0.3" height="0.5"/>
			<rect x="38.8" y="77.4" class="st38" width="0.3" height="0.5"/>
			<rect x="38.3" y="77.4" class="st38" width="0.3" height="0.5"/>
			<rect x="38" y="77.4" class="st38" width="0.3" height="0.5"/>
			<rect x="38" y="77.9" class="st38" width="0.3" height="0.5"/>
			<rect x="38.3" y="77.9" class="st38" width="0.3" height="0.5"/>
			<rect x="38.5" y="77.9" class="st38" width="0.3" height="0.5"/>
			<rect x="38.8" y="77.9" class="st38" width="0.3" height="0.5"/>
			<rect x="38.3" y="76.9" class="st38" width="0.3" height="0.5"/>
			<rect x="38" y="76.9" class="st38" width="0.3" height="0.5"/>
			<rect x="34.4" y="76.3" class="st38" width="0.5" height="0.5"/>
			<rect x="34.8" y="76.3" class="st38" width="0.5" height="0.5"/>
			<rect x="35.3" y="76.3" class="st38" width="0.5" height="0.5"/>
			<rect x="35.7" y="76.3" class="st38" width="0.5" height="0.5"/>
			<rect x="36.2" y="76.3" class="st38" width="0.5" height="0.5"/>
			<rect x="36.6" y="76.3" class="st38" width="0.5" height="0.5"/>
			<rect x="37.1" y="76.3" class="st38" width="0.5" height="0.5"/>
			<rect x="37.5" y="76.3" class="st38" width="0.5" height="0.5"/>
			<rect x="33.8" y="77.9" class="st38" width="0.5" height="0.5"/>
			<rect x="33.3" y="77.9" class="st38" width="0.5" height="0.5"/>
			<rect x="33.8" y="77.4" class="st38" width="0.5" height="0.5"/>
			<rect x="33.3" y="77.4" class="st38" width="0.5" height="0.5"/>
			<rect x="33.8" y="76.9" class="st38" width="0.5" height="0.5"/>
			<rect x="33.3" y="76.9" class="st38" width="0.5" height="0.5"/>
			<rect x="33.8" y="76.3" class="st38" width="0.5" height="0.5"/>
			<rect x="33.3" y="76.3" class="st38" width="0.5" height="0.5"/>
			<rect x="33.3" y="76.3" class="st38" width="0.3" height="0.5"/>
			<rect x="33.6" y="76.3" class="st38" width="0.3" height="0.5"/>
			<rect x="33.8" y="76.3" class="st38" width="0.3" height="0.5"/>
			<rect x="34.1" y="76.3" class="st38" width="0.3" height="0.5"/>
			<rect x="34.1" y="76.9" class="st38" width="0.3" height="0.5"/>
			<rect x="33.8" y="76.9" class="st38" width="0.3" height="0.5"/>
			<rect x="33.8" y="77.4" class="st38" width="0.3" height="0.5"/>
			<rect x="34.1" y="77.4" class="st38" width="0.3" height="0.5"/>
			<rect x="33.6" y="77.4" class="st38" width="0.3" height="0.5"/>
			<rect x="33.3" y="77.4" class="st38" width="0.3" height="0.5"/>
			<rect x="33.3" y="77.9" class="st38" width="0.3" height="0.5"/>
			<rect x="33.6" y="77.9" class="st38" width="0.3" height="0.5"/>
			<rect x="33.8" y="77.9" class="st38" width="0.3" height="0.5"/>
			<rect x="34.1" y="77.9" class="st38" width="0.3" height="0.5"/>
			<rect x="33.6" y="76.9" class="st38" width="0.3" height="0.5"/>
			<rect x="33.3" y="76.9" class="st38" width="0.3" height="0.5"/>
			<rect x="38.5" y="77.9" class="st38" width="0.5" height="0.5"/>
			<rect x="38" y="77.9" class="st38" width="0.5" height="0.5"/>
			<rect x="38.5" y="77.4" class="st38" width="0.5" height="0.5"/>
			<rect x="38" y="77.4" class="st38" width="0.5" height="0.5"/>
			<rect x="38.5" y="76.9" class="st38" width="0.5" height="0.5"/>
			<rect x="38" y="76.9" class="st38" width="0.5" height="0.5"/>
			<rect x="38.5" y="76.3" class="st38" width="0.5" height="0.5"/>
			<rect x="38" y="76.3" class="st38" width="0.5" height="0.5"/>
			<rect x="38" y="76.3" class="st38" width="0.3" height="0.5"/>
			<rect x="38.3" y="76.3" class="st38" width="0.3" height="0.5"/>
			<rect x="38.5" y="76.3" class="st38" width="0.3" height="0.5"/>
			<rect x="38.8" y="76.3" class="st38" width="0.3" height="0.5"/>
			<rect x="38.8" y="76.9" class="st38" width="0.3" height="0.5"/>
			<rect x="38.5" y="76.9" class="st38" width="0.3" height="0.5"/>
			<rect x="38.5" y="77.4" class="st38" width="0.3" height="0.5"/>
			<rect x="38.8" y="77.4" class="st38" width="0.3" height="0.5"/>
			<rect x="38.3" y="77.4" class="st38" width="0.3" height="0.5"/>
			<rect x="38" y="77.4" class="st38" width="0.3" height="0.5"/>
			<rect x="38" y="77.9" class="st38" width="0.3" height="0.5"/>
			<rect x="38.3" y="77.9" class="st38" width="0.3" height="0.5"/>
			<rect x="38.5" y="77.9" class="st38" width="0.3" height="0.5"/>
			<rect x="38.8" y="77.9" class="st38" width="0.3" height="0.5"/>
			<rect x="38.3" y="76.9" class="st38" width="0.3" height="0.5"/>
			<rect x="38" y="76.9" class="st38" width="0.3" height="0.5"/>
			<rect x="34.4" y="76.3" class="st38" width="0.5" height="0.5"/>
			<rect x="34.8" y="76.3" class="st38" width="0.5" height="0.5"/>
			<rect x="35.3" y="76.3" class="st38" width="0.5" height="0.5"/>
			<rect x="35.7" y="76.3" class="st38" width="0.5" height="0.5"/>
			<rect x="36.2" y="76.3" class="st38" width="0.5" height="0.5"/>
			<rect x="36.6" y="76.3" class="st38" width="0.5" height="0.5"/>
			<rect x="37.1" y="76.3" class="st38" width="0.5" height="0.5"/>
			<rect x="37.5" y="76.3" class="st38" width="0.5" height="0.5"/>
			<line class="st39" x1="34.4" y1="77.1" x2="38" y2="77.1"/>
			<line class="st39" x1="36.2" y1="77.1" x2="36.2" y2="78.8"/>
		</g>
		<g>
			<rect x="39.5" y="76.3" class="st10" width="13.8" height="2.6"/>
			<text transform="matrix(1 0 0 1 39.955 77.8009)" class="st35 st26 st40">poly-kroma</text>
		</g>
	</g>
	<g>
		<g id="XMLID_534_">
			<g class="st41">
				<rect x="31.5" y="54.3" class="st8" width="21.1" height="8.4"/>
			</g>
			<g>
				<rect x="31.1" y="53.9" class="st34" width="21.1" height="8.4"/>
			</g>
		</g>
		<g id="XMLID_528_">
			<g class="st41">
				<polygon class="st8" points="52.3,62.6 56.8,62.6 52.3,60.6 				"/>
			</g>
			<g>
				<polygon class="st34" points="51.9,62.2 56.4,62.2 51.9,60.2 				"/>
			</g>
		</g>
		<g>
			<path class="st35" d="M32.1,56.3v1.6c0,0,3.9-0.5,3.8-0.5s0-2,0-2L32.1,56.3z"/>
			<polygon class="st34" points="33.6,56.6 33.6,57 35.9,56.7 35.9,56.2 			"/>
			<polygon class="st35" points="35.9,55.5 37.4,56.7 37.4,58.1 35.9,57.5 			"/>
			<polygon class="st34" points="35.9,56.2 36.9,56.8 36.9,57.2 35.9,56.7 			"/>
			<polygon class="st34" points="32.5,58.2 32.4,58.2 32.1,57.9 35.9,57.5 37.4,58.1 37.3,58.2 35.4,57.6 32.5,58 			"/>
			<polygon class="st35" points="32.5,58 32.5,60 35.4,60 35.4,57.6 			"/>
			<polygon class="st35" points="35.4,60 37,59.9 36.9,58.1 35.4,57.6 			"/>
		</g>
		<g>
			<rect x="38" y="56.2" class="st10" width="12.7" height="6.3"/>
			<text transform="matrix(1 0 0 1 38.7328 57.6304)"><tspan x="0" y="0" class="st35 st26 st40">University </tspan><tspan x="1.6" y="1.9" class="st35 st26 st40">library</tspan></text>
		</g>
	</g>
	<g>
		<rect id="XMLID_527_" x="66.7" y="31.7" class="st42" width="16.1" height="6.3"/>
		<polygon id="XMLID_526_" class="st42" points="82.8,38 82.8,40.8 80.7,38 		"/>
		<path class="st35" d="M77.7,36c0,0,3,0,3.8-3.2l0.1,0.1c-0.7,3.2-3.5,3.5-3.5,3.5L77.7,36z"/>
		<g>
			<rect x="67.3" y="32.9" class="st10" width="10.7" height="3.9"/>
			<text transform="matrix(1 0 0 1 68.227 34.3241)"><tspan x="0" y="0" class="st35 st26 st40">VOORHIS</tspan><tspan x="1.8" y="1.9" class="st35 st26 st40">PARK</tspan></text>
		</g>
	</g>
	<g>
		<rect x="111" y="32.7" class="st33" width="11.2" height="4"/>
		<g>
			<path id="XMLID_520_" class="st35" d="M114.4,34.7c0,0.8-0.7,1.3-1.5,1.3c-0.8,0-1.4-0.7-1.3-1.4c0-0.8,0.7-1.3,1.5-1.3
				C113.8,33.3,114.4,34,114.4,34.7"/>
			<rect x="111.9" y="33.9" class="st10" width="2.2" height="1.7"/>
			<text transform="matrix(1 0 0 1 112.3616 35.449)" class="st8 st26 st43">P</text>
		</g>
		<g>
			<rect x="114.6" y="34" class="st10" width="7.1" height="2.1"/>
			<text transform="matrix(1 0 0 1 114.8724 35.4524)"><tspan x="0" y="0" class="st35 st26 st40">Lot </tspan><tspan x="4.2" y="0" class="st35 st26 st40">F</tspan><tspan x="5.5" y="0" class="st35 st26 st40">9</tspan></text>
		</g>
	</g>
	<g>
		<polygon class="st33" points="84.3,26 84.3,32.1 100.5,32.1 102.5,34.9 102.5,32.1 102.5,26 		"/>
		<g>
			<path id="XMLID_516_" class="st35" d="M88.1,29c0,0.9-0.8,1.5-1.6,1.5c-0.9,0-1.5-0.8-1.5-1.6c0-0.9,0.8-1.5,1.6-1.5
				C87.5,27.4,88.1,28.1,88.1,29"/>
			<rect x="85.4" y="28.1" class="st10" width="2.4" height="1.9"/>
			<text transform="matrix(0.9757 0 0 1 85.8808 29.819)" class="st8 st26 st44">P</text>
		</g>
		<g>
			<rect x="88.7" y="26.4" class="st10" width="13.1" height="11.2"/>
			<text transform="matrix(1 0 0 1 88.9618 29.7482)" class="st35 st26 st40">STRUCTURE 1</text>
		</g>
	</g>
	<g>
		<rect id="XMLID_6_" x="82.2" y="64.5" class="st42" width="16.1" height="6.3"/>
		<polygon id="XMLID_5_" class="st42" points="82.2,64.5 82.2,61.7 84.3,64.5 		"/>
		<g>
			<rect x="84.9" y="65.8" class="st10" width="10.7" height="3.9"/>
			<text transform="matrix(1 0 0 1 85.7646 67.3084)"><tspan x="0" y="0" class="st35 st26 st40">Student </tspan><tspan x="-0.2" y="1.9" class="st35 st26 st40">services</tspan></text>
		</g>
	</g>
	<g>
		
			<rect id="XMLID_9_" x="70.4" y="89.9" transform="matrix(0.9527 -0.3039 0.3039 0.9527 -24.2381 26.8257)" class="st42" width="7.3" height="2.9"/>
		<polygon id="XMLID_3_" class="st42" points="70.2,91 69.8,89.8 71.1,90.7 		"/>
		<g>
			
				<rect x="71.7" y="90.5" transform="matrix(0.9527 -0.3039 0.3039 0.9527 -24.2563 26.8347)" class="st10" width="4.8" height="1.8"/>
			<text transform="matrix(0.9527 -0.3039 0.3039 0.9527 72.1799 92.6458)" class="st35 st45 st40">Bric</text>
		</g>
	</g>
	<g>
		
			<rect id="XMLID_11_" x="57.7" y="97.4" transform="matrix(0.9527 -0.3039 0.3039 0.9527 -27.1414 23.3032)" class="st42" width="7.3" height="2.9"/>
		<polygon id="XMLID_4_" class="st42" points="57.4,98.6 57,97.4 58.3,98.3 		"/>
		<g>
			
				<rect x="58.9" y="98" transform="matrix(0.9527 -0.3039 0.3039 0.9527 -27.1595 23.3123)" class="st10" width="4.8" height="1.8"/>
			<text transform="matrix(0.9527 -0.3039 0.3039 0.9527 59.3834 100.2203)" class="st35 st45 st40">gym</text>
		</g>
	</g>
	<g>
		<g>
			<path id="XMLID_392_" class="st35" d="M83.2,93.8c0,0.6-0.6,1.1-1.3,1.1c-0.7,0-1.2-0.6-1.2-1.2c0-0.6,0.6-1.1,1.3-1.1
				C82.7,92.6,83.2,93.2,83.2,93.8"/>
			<rect x="81.1" y="93.1" class="st10" width="1.9" height="1.4"/>
			<text transform="matrix(1.072 0 0 1 81.4511 94.3678)" class="st8 st26 st46">P</text>
		</g>
		<g>
			<rect x="82.5" y="92.9" class="st10" width="15.6" height="5"/>
			<text transform="matrix(1 0 0 1 83.8173 94.4157)" class="st35 st26 st40">STRUCTURE 2</text>
		</g>
	</g>
	<g>
		<polygon class="st42" points="68.9,79.8 68.8,79.8 64.5,79.8 68.8,82.4 68.8,87.1 80.2,87.1 80.2,79.8 		"/>
		<g>
			<rect x="69" y="80.7" class="st10" width="10.9" height="5.9"/>
			<text transform="matrix(1 0 0 1 70.083 82.2664)"><tspan x="0" y="0" class="st35 st45 st40">BRONCO</tspan><tspan x="-0.2" y="1.9" class="st35 st45 st40">STUDENT</tspan><tspan x="0.5" y="3.8" class="st35 st45 st40">CENTER</tspan></text>
		</g>
	</g>
	<g>
		<polygon class="st42" points="79.8,106.8 75.5,106.8 79.8,109.4 79.8,112 96.7,112 96.7,106.8 		"/>
		<g>
			<rect x="81" y="107.5" class="st10" width="14.1" height="5"/>
			<text transform="matrix(1 0 0 1 84.8684 109.0103)"><tspan x="0" y="0" class="st35 st26 st40">I-Poly</tspan><tspan x="-3.6" y="1.9" class="st35 st26 st40">high school</tspan></text>
		</g>
	</g>
	<g>
		<rect x="88.9" y="48.9" class="st33" width="11.8" height="4.6"/>
		<g>
			<path id="XMLID_521_" class="st35" d="M92.6,51.2c0,0.9-0.8,1.5-1.7,1.5c-0.9,0-1.6-0.8-1.5-1.6c0-0.9,0.8-1.5,1.7-1.5
				C92,49.7,92.7,50.4,92.6,51.2"/>
			<rect x="89.8" y="50.3" class="st10" width="2.5" height="1.9"/>
			<text transform="matrix(1 0 0 1 90.3672 52.0721)" class="st8 st26 st47">P</text>
		</g>
		<g>
			<rect x="93" y="50.4" class="st10" width="7.4" height="2.4"/>
			<text transform="matrix(1 0 0 1 93.3183 51.8787)"><tspan x="0" y="0" class="st35 st26 st40">Lot </tspan><tspan x="4.2" y="0" class="st35 st26 st40">F</tspan><tspan x="5.5" y="0" class="st35 st26 st40">8</tspan></text>
		</g>
	</g>
	<g>
		<rect x="72.9" y="51.7" class="st33" width="11.8" height="4.6"/>
		<g>
			<path id="XMLID_1_" class="st35" d="M76.7,54c0,0.9-0.8,1.5-1.7,1.5c-0.9,0-1.6-0.8-1.5-1.6c0-0.9,0.8-1.5,1.7-1.5
				C76,52.4,76.7,53.2,76.7,54"/>
			<rect x="73.9" y="53.1" class="st10" width="2.5" height="1.9"/>
			<text transform="matrix(1 0 0 1 74.3882 54.8397)" class="st8 st26 st47">P</text>
		</g>
		<g>
			<rect x="77" y="53.2" class="st10" width="7.4" height="2.4"/>
			<text transform="matrix(1 0 0 1 77.8882 54.6463)" class="st35 st26 st40">Lot C</text>
		</g>
	</g>
</g>
<g id="Key">
	<rect x="119.9" y="40.1" class="st48" width="31.3" height="41.5"/>
	<path class="st35" d="M123.5,78.4c0,0,3.6,0,4.5-3.7l0.2,0.2c-0.9,3.7-4.2,4.2-4.2,4.2L123.5,78.4z"/>
	<g>
		<polygon class="st35" points="124.6,69.6 124.6,72.4 127,72.4 127,69.6 124.6,67.5 		"/>
		<polygon class="st34" points="124.9,68.1 126.8,69.7 124.9,69.7 		"/>
	</g>
	<g>
		<path class="st35" d="M123.4,61.8v1.5c0,0,3.6-0.4,3.5-0.4c0,0,0-1.9,0-1.9L123.4,61.8z"/>
		<polygon class="st34" points="124.7,62.1 124.7,62.5 126.9,62.1 126.9,61.7 		"/>
		<polygon class="st35" points="126.9,61 128.3,62.2 128.3,63.5 126.9,62.9 		"/>
		<polygon class="st34" points="126.9,61.7 127.8,62.3 127.8,62.7 126.9,62.1 		"/>
		<polygon class="st34" points="123.8,63.6 123.6,63.6 123.4,63.3 126.9,62.9 128.3,63.5 128.1,63.5 126.4,63 123.8,63.4 		"/>
		<polygon class="st35" points="123.8,63.4 123.8,65.2 126.4,65.2 126.4,63 		"/>
		<polygon class="st35" points="126.4,65.2 127.9,65.2 127.8,63.4 126.4,63 		"/>
	</g>
	<g>
		<path id="XMLID_522_" class="st35" d="M128,57.6c-0.1,1.2-1.1,2.1-2.3,2c-1.2-0.1-2.1-1.1-2.1-2.2c0.1-1.2,1.1-2.1,2.3-2
			C127.1,55.5,128,56.4,128,57.6"/>
		<rect x="124.2" y="56.4" class="st10" width="3.4" height="2.6"/>
		<text transform="matrix(1 0 0 1 124.75 58.6707)" class="st8 st49 st50">P</text>
	</g>
	<g>
		<path id="XMLID_2_" class="st35" d="M127.9,45.3c-0.1,1.1-1.1,2-2.2,2c-1.2-0.1-2.1-1-2-2.2c0.1-1.1,1.1-2,2.2-2
			C127.1,43.2,128,44.2,127.9,45.3"/>
		<rect x="124.1" y="43.9" class="st10" width="3.4" height="2.5"/>
		<text transform="matrix(1 0 0 1 125.3457 46.3343)" class="st8 st51 st52">i</text>
	</g>
	<g>
		<rect x="123" y="50.4" class="st53" width="5.6" height="3.3"/>
		<path class="st34" d="M124.4,52v0.1c0,0,0.1,0,0.1,0.1c0,0.1-0.1,0.1-0.1,0.1l0.1,0.1l-0.1,0.1h0.1v0.2h-0.1l0.1,0.1l-0.1,0.1
			l0.1,0.1l-0.1,0.1l0.1,0.1l-0.1,0.1v0.1H124V52H124.4z"/>
		<path class="st34" d="M127.2,52v0.1c0,0-0.1,0-0.1,0.1c0,0.1,0.1,0.1,0.1,0.1l-0.1,0.1l0.1,0.1H127v0.2h0.1l-0.1,0.1l0.1,0.1
			l-0.1,0.1l0.1,0.1l-0.1,0.1l0.1,0.1v0.1h0.4V52H127.2z"/>
		<rect x="123" y="53.3" class="st34" width="1.1" height="0.4"/>
		<rect x="127.5" y="53.3" class="st34" width="1.2" height="0.4"/>
		<rect x="123.5" y="52.8" class="st38" width="0.5" height="0.5"/>
		<rect x="123" y="52.8" class="st38" width="0.5" height="0.5"/>
		<rect x="123.5" y="52.3" class="st38" width="0.5" height="0.5"/>
		<rect x="123" y="52.3" class="st38" width="0.5" height="0.5"/>
		<rect x="123.5" y="51.8" class="st38" width="0.5" height="0.5"/>
		<rect x="123" y="51.8" class="st38" width="0.5" height="0.5"/>
		<rect x="123.5" y="51.3" class="st38" width="0.5" height="0.5"/>
		<rect x="123" y="51.3" class="st38" width="0.5" height="0.5"/>
		<rect x="123" y="51.3" class="st38" width="0.3" height="0.5"/>
		<rect x="123.3" y="51.3" class="st38" width="0.3" height="0.5"/>
		<rect x="123.5" y="51.3" class="st38" width="0.3" height="0.5"/>
		<rect x="123.8" y="51.3" class="st38" width="0.3" height="0.5"/>
		<rect x="123.8" y="51.8" class="st38" width="0.3" height="0.5"/>
		<rect x="123.5" y="51.8" class="st38" width="0.3" height="0.5"/>
		<rect x="123.5" y="52.3" class="st38" width="0.3" height="0.5"/>
		<rect x="123.8" y="52.3" class="st38" width="0.3" height="0.5"/>
		<rect x="123.3" y="52.3" class="st38" width="0.3" height="0.5"/>
		<rect x="123" y="52.3" class="st38" width="0.3" height="0.5"/>
		<rect x="123" y="52.8" class="st38" width="0.3" height="0.5"/>
		<rect x="123.3" y="52.8" class="st38" width="0.3" height="0.5"/>
		<rect x="123.5" y="52.8" class="st38" width="0.3" height="0.5"/>
		<rect x="123.8" y="52.8" class="st38" width="0.3" height="0.5"/>
		<rect x="123.3" y="51.8" class="st38" width="0.3" height="0.5"/>
		<rect x="123" y="51.8" class="st38" width="0.3" height="0.5"/>
		<rect x="128.1" y="52.8" class="st38" width="0.5" height="0.5"/>
		<rect x="127.6" y="52.8" class="st38" width="0.5" height="0.5"/>
		<rect x="128.1" y="52.3" class="st38" width="0.5" height="0.5"/>
		<rect x="127.6" y="52.3" class="st38" width="0.5" height="0.5"/>
		<rect x="128.1" y="51.8" class="st38" width="0.5" height="0.5"/>
		<rect x="127.6" y="51.8" class="st38" width="0.5" height="0.5"/>
		<rect x="128.1" y="51.3" class="st38" width="0.5" height="0.5"/>
		<rect x="127.6" y="51.3" class="st38" width="0.5" height="0.5"/>
		<rect x="127.6" y="51.3" class="st38" width="0.3" height="0.5"/>
		<rect x="127.9" y="51.3" class="st38" width="0.3" height="0.5"/>
		<rect x="128.1" y="51.3" class="st38" width="0.3" height="0.5"/>
		<rect x="128.4" y="51.3" class="st38" width="0.3" height="0.5"/>
		<rect x="128.4" y="51.8" class="st38" width="0.3" height="0.5"/>
		<rect x="128.1" y="51.8" class="st38" width="0.3" height="0.5"/>
		<rect x="128.1" y="52.3" class="st38" width="0.3" height="0.5"/>
		<rect x="128.4" y="52.3" class="st38" width="0.3" height="0.5"/>
		<rect x="127.8" y="52.3" class="st38" width="0.3" height="0.5"/>
		<rect x="127.6" y="52.3" class="st38" width="0.3" height="0.5"/>
		<rect x="127.6" y="52.8" class="st38" width="0.3" height="0.5"/>
		<rect x="127.9" y="52.8" class="st38" width="0.3" height="0.5"/>
		<rect x="128.1" y="52.8" class="st38" width="0.3" height="0.5"/>
		<rect x="128.4" y="52.8" class="st38" width="0.3" height="0.5"/>
		<rect x="127.9" y="51.8" class="st38" width="0.3" height="0.5"/>
		<rect x="127.6" y="51.8" class="st38" width="0.3" height="0.5"/>
		<rect x="124" y="51.3" class="st38" width="0.4" height="0.5"/>
		<rect x="124.5" y="51.3" class="st38" width="0.4" height="0.5"/>
		<rect x="124.9" y="51.3" class="st38" width="0.4" height="0.5"/>
		<rect x="125.4" y="51.3" class="st38" width="0.4" height="0.5"/>
		<rect x="125.8" y="51.3" class="st38" width="0.4" height="0.5"/>
		<rect x="126.3" y="51.3" class="st38" width="0.4" height="0.5"/>
		<rect x="126.7" y="51.3" class="st38" width="0.4" height="0.5"/>
		<rect x="127.1" y="51.3" class="st38" width="0.4" height="0.5"/>
		<rect x="123.5" y="52.8" class="st38" width="0.5" height="0.5"/>
		<rect x="123" y="52.8" class="st38" width="0.5" height="0.5"/>
		<rect x="123.5" y="52.3" class="st38" width="0.5" height="0.5"/>
		<rect x="123" y="52.3" class="st38" width="0.5" height="0.5"/>
		<rect x="123.5" y="51.8" class="st38" width="0.5" height="0.5"/>
		<rect x="123" y="51.8" class="st38" width="0.5" height="0.5"/>
		<rect x="123.5" y="51.3" class="st38" width="0.5" height="0.5"/>
		<rect x="123" y="51.3" class="st38" width="0.5" height="0.5"/>
		<rect x="123" y="51.3" class="st38" width="0.3" height="0.5"/>
		<rect x="123.3" y="51.3" class="st38" width="0.3" height="0.5"/>
		<rect x="123.5" y="51.3" class="st38" width="0.3" height="0.5"/>
		<rect x="123.8" y="51.3" class="st38" width="0.3" height="0.5"/>
		<rect x="123.8" y="51.8" class="st38" width="0.3" height="0.5"/>
		<rect x="123.5" y="51.8" class="st38" width="0.3" height="0.5"/>
		<rect x="123.5" y="52.3" class="st38" width="0.3" height="0.5"/>
		<rect x="123.8" y="52.3" class="st38" width="0.3" height="0.5"/>
		<rect x="123.3" y="52.3" class="st38" width="0.3" height="0.5"/>
		<rect x="123" y="52.3" class="st38" width="0.3" height="0.5"/>
		<rect x="123" y="52.8" class="st38" width="0.3" height="0.5"/>
		<rect x="123.3" y="52.8" class="st38" width="0.3" height="0.5"/>
		<rect x="123.5" y="52.8" class="st38" width="0.3" height="0.5"/>
		<rect x="123.8" y="52.8" class="st38" width="0.3" height="0.5"/>
		<rect x="123.3" y="51.8" class="st38" width="0.3" height="0.5"/>
		<rect x="123" y="51.8" class="st38" width="0.3" height="0.5"/>
		<rect x="128.1" y="52.8" class="st38" width="0.5" height="0.5"/>
		<rect x="127.6" y="52.8" class="st38" width="0.5" height="0.5"/>
		<rect x="128.1" y="52.3" class="st38" width="0.5" height="0.5"/>
		<rect x="127.6" y="52.3" class="st38" width="0.5" height="0.5"/>
		<rect x="128.1" y="51.8" class="st38" width="0.5" height="0.5"/>
		<rect x="127.6" y="51.8" class="st38" width="0.5" height="0.5"/>
		<rect x="128.1" y="51.3" class="st38" width="0.5" height="0.5"/>
		<rect x="127.6" y="51.3" class="st38" width="0.5" height="0.5"/>
		<rect x="127.6" y="51.3" class="st38" width="0.3" height="0.5"/>
		<rect x="127.9" y="51.3" class="st38" width="0.3" height="0.5"/>
		<rect x="128.1" y="51.3" class="st38" width="0.3" height="0.5"/>
		<rect x="128.4" y="51.3" class="st38" width="0.3" height="0.5"/>
		<rect x="128.4" y="51.8" class="st38" width="0.3" height="0.5"/>
		<rect x="128.1" y="51.8" class="st38" width="0.3" height="0.5"/>
		<rect x="128.1" y="52.3" class="st38" width="0.3" height="0.5"/>
		<rect x="128.4" y="52.3" class="st38" width="0.3" height="0.5"/>
		<rect x="127.8" y="52.3" class="st38" width="0.3" height="0.5"/>
		<rect x="127.6" y="52.3" class="st38" width="0.3" height="0.5"/>
		<rect x="127.6" y="52.8" class="st38" width="0.3" height="0.5"/>
		<rect x="127.9" y="52.8" class="st38" width="0.3" height="0.5"/>
		<rect x="128.1" y="52.8" class="st38" width="0.3" height="0.5"/>
		<rect x="128.4" y="52.8" class="st38" width="0.3" height="0.5"/>
		<rect x="127.9" y="51.8" class="st38" width="0.3" height="0.5"/>
		<rect x="127.6" y="51.8" class="st38" width="0.3" height="0.5"/>
		<rect x="124" y="51.3" class="st38" width="0.4" height="0.5"/>
		<rect x="124.5" y="51.3" class="st38" width="0.4" height="0.5"/>
		<rect x="124.9" y="51.3" class="st38" width="0.4" height="0.5"/>
		<rect x="125.4" y="51.3" class="st38" width="0.4" height="0.5"/>
		<rect x="125.8" y="51.3" class="st38" width="0.4" height="0.5"/>
		<rect x="126.3" y="51.3" class="st38" width="0.4" height="0.5"/>
		<rect x="126.7" y="51.3" class="st38" width="0.4" height="0.5"/>
		<rect x="127.1" y="51.3" class="st38" width="0.4" height="0.5"/>
		<line class="st39" x1="124.1" y1="52" x2="127.6" y2="52"/>
		<line class="st39" x1="125.8" y1="52" x2="125.8" y2="53.6"/>
	</g>
	<g>
		<rect x="131" y="43.1" class="st10" width="18.5" height="43.2"/>
		<text transform="matrix(1 0 0 1 130.957 44.8646)"><tspan x="0" y="0" class="st35 st26 st54">Information </tspan><tspan x="0" y="2.2" class="st35 st26 st54">booth</tspan><tspan x="0" y="6.7" class="st35 st26 st54">KELLOGG </tspan><tspan x="0" y="9" class="st35 st26 st54">ART GALLERY</tspan><tspan x="0" y="13.5" class="st35 st26 st54">PARKING</tspan><tspan x="0" y="18" class="st35 st26 st54">UNIVERSITY</tspan><tspan x="0" y="20.2" class="st35 st26 st54">LIBRARY</tspan><tspan x="0" y="27" class="st35 st26 st54">CLA BUILDING</tspan><tspan x="0" y="31.5" class="st35 st26 st54">VOORHIS </tspan><tspan x="0" y="33.7" class="st35 st26 st54">PARK</tspan></text>
	</g>
	<g>
		<path id="XMLID_12_" class="st8" d="M109.3,34c-0.1,1-0.9,1.7-1.9,1.7c-1,0-1.7-0.9-1.7-1.8c0.1-1,0.9-1.7,1.9-1.7
			C108.6,32.3,109.3,33.1,109.3,34"/>
		<rect x="106.1" y="32.9" class="st10" width="2.8" height="2.1"/>
		<text transform="matrix(1 0 0 1 107.0837 34.926)" class="st35 st51 st55">i</text>
	</g>
</g>
<g id="Header">
	<g>
		<rect x="16.4" y="8.6" class="st10" width="36.5" height="12.8"/>
		<text transform="matrix(1 0 0 1 23.014 13.9393)"><tspan x="0" y="0" class="st8 st56 st57">CAMPUS</tspan><tspan x="14" y="7.3" class="st8 st56 st57">MAP</tspan></text>
	</g>
	<g>
		<polyline id="XMLID_541_" class="st11" points="34.3,26.8 32.9,23.6 31.5,26.8 		"/>
		<polyline id="XMLID_540_" class="st11" points="34.3,26.8 32.9,30 31.5,26.8 		"/>
		<polyline id="XMLID_539_" class="st11" points="32.9,28.2 36.2,26.9 32.9,25.4 		"/>
		<polyline id="XMLID_538_" class="st11" points="32.9,25.4 29.6,26.8 32.9,28.2 		"/>
		<rect x="31.8" y="21.1" class="st10" width="2.4" height="3"/>
		<text transform="matrix(1 0 0 1 31.8534 23.3603)" class="st11 st26 st58">N</text>
		<rect x="31.7" y="30.4" class="st10" width="2.4" height="3"/>
		<text transform="matrix(1 0 0 1 31.9545 32.6972)" class="st11 st26 st58">S</text>
		<rect x="36.2" y="25.6" class="st10" width="2.4" height="2.4"/>
		<text transform="matrix(1 0 0 1 36.5404 27.8779)" class="st11 st26 st58">E</text>
		<rect x="26.5" y="25.6" class="st10" width="2.9" height="2.5"/>
		<text transform="matrix(1 0 0 1 26.4755 27.8447)" class="st11 st26 st58">W</text>
	</g>
</g>
</svg>
